<svg width="101" height="101" viewBox="0 0 101 101" fill="none" xmlns="http://www.w3.org/2000/svg">
<path fill-rule="evenodd" clip-rule="evenodd" d="M21.8379 85.4816C21.8379 87.8716 23.7879 89.8216 26.1779 89.8216C36.1379 89.8116 44.4779 82.7616 46.4779 73.3816H58.6279C69.8779 73.3816 79.3379 64.4316 79.7479 53.4216C79.9579 47.7416 77.8979 42.3516 73.9579 38.2716C70.0179 34.1916 64.7179 31.9316 59.0379 31.9316L40.7879 31.9116V15.9416C40.7879 14.0116 39.5279 12.3116 37.6679 11.7716C35.8179 11.2416 33.8279 11.9916 32.7979 13.6216L24.2479 27.1116C22.2379 29.3816 21.6679 32.5716 22.8079 35.4316C24.0279 38.4616 26.9079 40.4516 30.1679 40.4916L36.4579 40.5916L59.0479 40.6116C62.3479 40.6116 65.4179 41.9116 67.7179 44.2916C69.9979 46.6716 71.1979 49.8016 71.0779 53.1116C70.8379 59.5016 65.2579 64.7016 58.6279 64.7016L42.5979 64.7216C40.1879 64.7216 38.2579 66.6716 38.2579 69.0616C38.2579 74.1916 35.0379 78.5816 30.5179 80.3316V60.8816C30.5179 58.7516 32.2579 57.0116 34.3879 57.0116H45.0379C46.3879 58.9216 48.6079 60.1716 51.1179 60.1716C55.2179 60.1716 58.5579 56.8316 58.5579 52.7316C58.5579 48.6316 55.2179 45.2916 51.1179 45.2916C48.6579 45.2916 46.4779 46.4916 45.1179 48.3316H34.3879C27.4679 48.3316 21.8379 53.9616 21.8379 60.8816V85.4816Z" fill="url(#paint0_linear_605_3797)"/>
<defs>
<linearGradient id="paint0_linear_605_3797" x1="34.8279" y1="92.3116" x2="53.2579" y2="36.6716" gradientUnits="userSpaceOnUse">
<stop stop-color="#23BD8F"/>
<stop offset="1" stop-color="#1BDBAD"/>
</linearGradient>
</defs>
</svg>
