<?xml version="1.0" standalone="no"?>
<!DOCTYPE svg PUBLIC "-//W3C//DTD SVG 20010904//EN"
 "http://www.w3.org/TR/2001/REC-SVG-20010904/DTD/svg10.dtd">
<svg version="1.0" xmlns="http://www.w3.org/2000/svg"
 width="2048.000000pt" height="2048.000000pt" viewBox="0 0 2048.000000 2048.000000"
 preserveAspectRatio="xMidYMid meet">
<metadata>
Created by potrace 1.14, written by Peter Selinger 2001-2017
</metadata>
<g transform="translate(0.000000,2048.000000) scale(0.100000,-0.100000)"
fill="#000000" stroke="none">
<path d="M5642 17989 c-52 -15 -152 -122 -199 -214 -99 -192 -192 -545 -238
-905 -23 -173 -24 -426 -2 -505 l17 -60 -38 -32 c-20 -18 -40 -32 -44 -33 -19
-1 -125 -146 -164 -225 -79 -158 -92 -325 -40 -491 13 -41 36 -90 50 -108 22
-29 24 -38 15 -67 -5 -19 -12 -79 -16 -134 -9 -150 27 -264 109 -352 l30 -31
-18 -119 c-11 -77 -18 -177 -18 -288 0 -194 15 -284 64 -378 28 -55 29 -61 15
-87 -36 -70 -46 -141 -45 -350 0 -225 24 -482 59 -633 12 -48 21 -92 21 -96 0
-5 -29 -30 -63 -55 -35 -26 -73 -63 -84 -84 -79 -141 -121 -483 -103 -835 18
-332 57 -545 128 -684 l21 -41 -34 -68 c-105 -208 -48 -647 100 -770 41 -35
43 -40 43 -88 -1 -60 19 -105 68 -156 l34 -35 -24 -60 c-34 -83 -50 -260 -41
-443 l7 -143 -35 -67 c-62 -118 -106 -298 -133 -545 -20 -176 -14 -587 10
-742 66 -417 210 -715 419 -865 42 -30 45 -34 36 -63 -5 -18 -9 -63 -9 -102 0
-151 63 -287 205 -443 42 -46 59 -72 62 -100 19 -141 165 -386 275 -461 l35
-25 6 -95 c6 -119 45 -246 128 -421 105 -220 258 -446 364 -537 l44 -38 -10
-50 c-14 -66 -3 -257 21 -392 60 -334 205 -551 394 -594 l52 -11 0 -47 c1 -81
73 -189 157 -232 31 -16 37 -25 37 -50 0 -82 61 -235 119 -302 27 -30 129 -96
216 -140 85 -42 252 -47 337 -9 72 31 78 47 67 177 -10 111 -6 161 11 150 6
-3 10 -46 10 -94 0 -143 44 -256 134 -347 43 -42 66 -56 121 -73 105 -33 214
-37 309 -12 128 34 194 78 253 171 49 75 73 151 80 245 4 49 12 89 22 102 9
13 48 39 88 58 93 45 169 128 226 244 35 73 41 96 45 165 l4 81 88 85 c59 57
100 107 123 150 86 158 117 442 82 740 -14 116 -13 125 3 134 66 36 157 201
211 382 41 140 81 324 81 373 0 46 7 49 64 26 109 -46 329 -69 646 -70 205 0
290 4 376 18 203 32 364 84 463 152 l48 31 39 -33 c34 -30 146 -89 227 -122
31 -12 34 -30 12 -91 -85 -240 200 -823 479 -980 58 -33 58 -33 52 -71 -12
-73 13 -186 65 -303 101 -226 202 -381 320 -490 66 -61 69 -65 58 -92 -27 -70
0 -205 54 -276 34 -44 129 -107 212 -140 71 -29 225 -36 293 -14 87 29 168
117 187 204 3 17 8 32 9 32 2 0 33 -13 68 -30 l66 -29 6 -54 c9 -68 53 -163
101 -216 94 -103 314 -175 464 -150 116 18 203 84 254 192 36 76 54 189 40
246 l-11 42 38 19 c46 23 256 228 297 290 99 147 170 436 144 586 -14 78 -56
226 -76 264 -13 25 -13 29 1 41 63 52 171 352 228 634 39 196 50 300 50 500 1
222 -17 316 -83 441 -37 72 -38 74 -17 80 41 13 166 107 209 157 168 198 332
477 396 672 16 50 41 110 54 135 36 63 61 137 96 275 102 411 125 564 125 830
1 215 -12 319 -59 492 -53 200 -165 454 -277 634 -47 73 -56 95 -67 168 -40
265 -148 476 -317 621 -108 91 -298 175 -492 216 l-83 18 -43 61 c-58 80 -167
181 -247 228 -79 46 -203 87 -286 94 -124 11 -507 -47 -593 -89 -43 -22 -50
-22 -91 -10 -24 7 -71 12 -104 11 -61 -2 -61 -2 -111 48 -88 88 -247 148 -454
174 -107 13 -334 5 -409 -15 l-46 -12 -1 151 c0 169 -17 282 -63 422 -50 152
-160 352 -243 439 l-29 31 113 56 c202 99 358 215 514 380 321 341 493 776
494 1249 l0 148 33 -8 c66 -15 407 -7 502 11 232 45 492 155 670 282 356 255
591 615 686 1052 33 154 38 457 10 628 -105 635 -577 1174 -1182 1349 -160 46
-232 57 -402 63 -344 12 -675 -57 -967 -201 -537 -264 -895 -800 -928 -1389
l-7 -118 -225 -3 c-233 -3 -353 -20 -567 -77 -814 -217 -1363 -915 -1363
-1736 0 -564 263 -1084 725 -1433 39 -29 68 -56 65 -59 -2 -3 -29 -25 -60 -48
-71 -53 -197 -182 -254 -258 -175 -233 -263 -517 -255 -819 4 -116 0 -142 -16
-116 -3 5 -35 19 -71 30 -101 31 -299 28 -453 -6 -101 -22 -181 -45 -243 -69
-16 -6 -15 -3 2 32 29 61 34 144 15 258 -23 136 -62 242 -152 421 l-76 152 26
33 c40 55 56 93 87 212 90 340 97 630 20 887 -27 91 -80 215 -125 291 -19 33
-35 62 -35 64 0 2 26 18 58 35 75 43 109 72 156 134 120 159 179 377 179 661
0 288 -63 527 -183 686 -36 48 -38 54 -26 78 43 83 51 141 50 346 -1 221 -19
344 -67 449 l-25 54 29 58 c50 103 64 201 64 449 0 162 -5 250 -18 335 -78
501 -273 905 -529 1091 -103 75 -204 120 -291 130 -65 7 -77 5 -122 -16 -68
-32 -108 -69 -150 -140 -79 -133 -110 -306 -156 -875 -6 -80 -13 -147 -15
-149 -2 -2 -31 22 -64 52 -111 103 -270 178 -413 195 -184 23 -488 -48 -588
-137 -34 -29 -49 -36 -64 -30 -11 4 -45 8 -75 8 l-55 1 -22 58 c-12 31 -31 86
-42 122 -114 373 -151 486 -198 615 -60 160 -82 202 -134 252 -65 62 -142 83
-217 62z m149 -96 c68 -61 148 -243 220 -498 17 -60 57 -194 89 -296 62 -199
73 -249 53 -256 -7 -3 -13 2 -13 11 0 29 -219 590 -280 719 -36 75 -99 136
-162 156 -64 21 -111 -17 -182 -142 -101 -182 -210 -666 -211 -942 0 -113 3
-136 22 -177 28 -61 47 -63 38 -5 -8 54 11 358 31 497 30 203 84 401 161 590
43 105 65 130 112 130 29 0 42 -8 83 -52 62 -67 74 -95 165 -371 78 -238 139
-395 167 -426 15 -16 15 -19 -4 -36 -17 -16 -26 -16 -77 -7 -73 15 -177 1
-250 -33 -62 -28 -155 -112 -189 -171 -14 -23 -27 -65 -31 -93 l-6 -50 -66
-22 c-36 -12 -87 -32 -113 -45 -26 -13 -52 -24 -57 -24 -37 0 -47 318 -17 530
45 315 149 651 284 915 67 132 154 169 233 98z m2221 -28 c60 -18 136 -74 214
-157 183 -196 323 -520 401 -928 19 -101 23 -412 11 -787 -5 -134 -3 -186 9
-235 52 -223 55 -338 14 -558 -16 -85 -31 -177 -33 -205 -3 -45 -1 -49 19 -50
30 0 65 -55 107 -168 55 -147 79 -279 79 -437 0 -258 -76 -488 -242 -736 -56
-85 -62 -90 -90 -86 -26 3 -31 0 -36 -21 -9 -32 8 -85 50 -162 44 -81 99 -257
120 -384 26 -152 17 -287 -35 -546 -23 -115 -48 -248 -55 -294 -8 -46 -19 -89
-24 -94 -28 -28 -6 -110 57 -222 40 -70 75 -174 90 -265 12 -73 44 -400 46
-470 l1 -45 55 -3 c39 -2 83 6 154 28 122 37 224 44 490 33 l189 -8 23 -85
c13 -46 22 -85 21 -87 -2 -1 -36 -7 -77 -13 -78 -11 -232 -41 -239 -46 -10 -8
75 -230 98 -255 l26 -30 180 20 c943 105 1557 127 2688 95 133 -4 217 -3 217
3 0 35 -161 182 -247 227 -38 19 -37 16 -14 120 l17 79 65 14 c131 29 388 -2
576 -68 109 -38 275 -120 326 -160 l37 -30 0 27 0 26 63 -6 c34 -3 82 -9 106
-12 23 -3 53 -2 65 4 11 6 39 13 61 16 22 2 72 12 110 20 39 9 129 19 200 22
282 14 411 -40 640 -272 108 -109 124 -122 163 -128 40 -6 43 -5 37 14 -9 27
0 26 108 -16 254 -101 388 -207 466 -371 17 -34 51 -129 76 -210 96 -310 140
-437 157 -457 16 -21 17 -21 31 13 l15 35 25 -50 c100 -198 190 -495 217 -717
20 -156 8 -481 -24 -649 -30 -163 -104 -459 -152 -607 -19 -58 -37 -137 -41
-176 -12 -133 -123 -346 -292 -560 -76 -97 -235 -253 -303 -298 -61 -40 -69
-52 -40 -61 18 -7 82 -161 102 -246 18 -77 24 -330 11 -448 -25 -215 -91 -471
-186 -727 -61 -163 -70 -208 -50 -248 49 -98 70 -371 39 -510 -15 -71 -98
-257 -114 -257 -5 0 -73 -64 -152 -143 -132 -131 -148 -144 -214 -169 -39 -15
-100 -32 -135 -37 -234 -38 -306 -46 -399 -45 -112 0 -184 16 -275 61 -91 45
-235 161 -215 173 16 10 -14 44 -118 136 -176 156 -262 288 -315 484 -14 52
-40 146 -57 209 -17 63 -28 121 -25 128 2 8 -13 39 -36 69 -32 44 -69 119 -69
140 0 3 16 -3 36 -11 20 -8 48 -15 61 -15 25 0 25 0 7 28 -9 15 -43 56 -74 92
-152 174 -226 354 -237 576 l-6 111 49 24 c26 13 70 47 98 74 l50 50 -36 3
c-19 2 -62 -7 -94 -18 -162 -60 -196 -70 -279 -84 -161 -28 -290 -16 -465 44
-80 28 -295 121 -308 135 -3 2 8 18 22 36 32 38 70 109 62 117 -3 3 -63 -22
-133 -55 -278 -132 -455 -193 -713 -245 -99 -20 -144 -23 -330 -23 -230 1
-312 12 -473 67 -67 23 -69 24 -90 77 -21 52 -69 102 -83 88 -4 -4 -13 -73
-20 -154 -15 -163 -33 -263 -70 -397 -31 -109 -114 -320 -159 -402 -18 -34
-30 -66 -25 -70 14 -14 -6 -430 -24 -514 -42 -193 -144 -446 -198 -493 -18
-15 -38 -27 -44 -27 -6 0 -30 -55 -53 -122 -52 -149 -107 -246 -182 -319 -71
-69 -133 -101 -274 -145 -237 -73 -414 -67 -599 21 -197 94 -335 219 -387 350
-22 57 -89 257 -89 266 0 5 18 -1 41 -12 66 -35 179 -38 179 -6 0 16 -56 70
-138 131 -160 121 -301 278 -362 404 -54 112 -117 362 -98 392 19 30 0 83 -57
159 -152 201 -217 364 -249 620 -23 186 -29 281 -17 281 16 0 13 37 -5 65 -9
14 -47 46 -85 71 -42 28 -71 55 -75 68 -3 13 -23 40 -44 61 -38 37 -39 38 -84
26 -181 -45 -535 46 -758 197 -224 151 -340 327 -355 541 -5 72 -4 85 11 93
35 19 3 91 -92 207 -355 437 -434 1086 -230 1896 35 138 38 161 25 169 -12 8
-13 14 -2 40 9 20 15 101 18 231 5 205 6 213 64 388 4 12 0 17 -13 17 -11 0
-37 21 -60 48 -35 40 -42 56 -46 103 -4 47 -12 67 -52 123 -59 83 -90 157
-110 265 -26 136 -19 276 19 407 15 50 18 54 47 54 l31 0 -7 57 c-4 31 -13 64
-21 73 -36 40 -81 202 -115 418 -30 184 -38 539 -16 688 28 191 68 307 139
401 35 46 48 51 67 28 7 -8 20 -15 30 -15 38 0 32 109 -15 239 -38 107 -71
309 -81 496 -6 119 5 283 27 398 10 49 14 57 30 52 27 -9 24 4 -22 119 -22 55
-47 134 -55 174 -15 77 -17 288 -5 461 l6 94 33 -49 c18 -27 41 -60 52 -74 27
-34 38 -104 38 -231 0 -103 2 -109 38 -180 35 -70 37 -81 45 -208 6 -100 13
-141 27 -165 10 -17 26 -51 36 -75 22 -56 94 -167 132 -205 36 -35 197 -117
285 -144 251 -78 591 -33 808 105 78 49 116 84 192 174 58 68 69 88 84 148 14
60 24 76 60 110 46 42 94 71 120 71 20 0 35 40 35 95 0 92 67 208 151 261 21
13 91 42 155 64 102 35 119 38 126 25 23 -39 79 4 133 103 19 34 67 86 152
162 68 61 129 122 135 136 6 13 17 24 24 24 20 0 53 49 59 89 3 20 11 67 17
104 16 93 0 189 -46 282 -37 74 -108 155 -159 182 -29 15 -30 16 -12 29 10 8
15 17 11 21 -4 5 -74 8 -154 9 -83 1 -167 6 -192 13 -78 22 -160 73 -242 150
-43 40 -81 71 -84 68 -3 -3 0 -24 7 -46 8 -28 9 -45 2 -52 -17 -17 -147 -57
-241 -75 -103 -19 -298 -15 -349 7 l-31 15 34 54 c39 62 43 90 14 90 -11 0
-31 -17 -48 -43 -39 -56 -110 -120 -162 -147 -189 -96 -408 -59 -546 93 -29
33 -57 57 -61 54 -3 -4 2 -25 12 -47 11 -24 15 -44 9 -49 -19 -16 -136 -41
-193 -41 -109 0 -153 15 -206 71 -25 27 -51 49 -56 49 -6 0 -9 -14 -7 -32 3
-29 -2 -35 -57 -69 -51 -32 -77 -41 -167 -55 -60 -9 -108 -21 -108 -27 0 -6 7
-18 15 -27 13 -15 11 -21 -17 -59 l-32 -44 -17 22 c-24 29 -39 107 -39 199 0
140 65 285 185 411 91 96 161 140 355 222 97 42 94 38 106 119 5 41 15 85 22
96 15 28 78 83 108 94 30 12 204 40 245 40 20 0 52 14 88 38 64 44 135 64 226
65 52 1 71 -4 118 -31 31 -18 61 -32 67 -32 19 0 10 22 -19 48 l-30 25 19 27
c23 32 108 75 192 96 83 22 263 14 371 -15 99 -26 268 -97 374 -157 l82 -47
-5 -42 c-5 -31 -2 -45 11 -59 10 -9 21 -14 25 -9 9 9 75 366 145 778 26 148
55 296 66 328 25 74 63 135 92 147 34 14 117 11 169 -5z m5592 -585 c314 -53
581 -190 815 -414 247 -239 404 -537 463 -880 27 -159 21 -446 -11 -598 -117
-540 -505 -983 -1020 -1162 -176 -62 -282 -79 -481 -80 -96 -1 -200 3 -231 7
l-56 8 -18 92 c-39 208 -144 466 -264 650 -248 379 -668 670 -1101 763 l-83
18 6 121 c21 397 187 761 474 1035 125 121 143 132 54 34 -268 -294 -410 -618
-443 -1009 -13 -155 -10 -178 24 -173 22 3 23 8 29 133 11 225 65 430 165 630
159 318 454 604 735 712 164 63 359 115 505 133 96 12 307 3 438 -20z m-6271
-1556 c83 -76 258 -134 401 -134 71 0 79 -2 138 -41 66 -42 110 -96 129 -158
14 -47 23 -262 14 -346 -6 -60 -9 -67 -33 -76 -65 -23 -102 -49 -172 -119 -77
-78 -170 -203 -195 -264 l-15 -35 -35 21 c-56 32 -147 30 -221 -8 -113 -57
-215 -188 -249 -323 -9 -35 -14 -74 -11 -87 6 -21 0 -27 -41 -46 -95 -44 -183
-168 -183 -256 0 -25 -16 -38 -136 -116 -149 -97 -238 -141 -359 -179 -218
-68 -424 -59 -598 29 -114 57 -156 95 -210 192 -72 128 -79 150 -72 204 12
100 -44 288 -103 342 -18 16 -19 20 -6 63 28 93 12 208 -41 299 -14 23 -25 50
-25 59 0 9 -41 56 -90 105 -104 102 -131 153 -150 273 -18 118 12 261 83 407
20 41 26 45 67 51 61 9 110 31 181 80 56 40 60 41 78 25 27 -24 107 -53 171
-61 59 -7 221 24 255 49 16 11 25 9 62 -17 178 -119 464 -112 609 16 l35 30
67 -31 c99 -45 146 -55 257 -56 147 -1 263 37 321 108 16 19 31 35 33 35 2 1
22 -15 44 -35z m4302 -164 c223 -47 441 -141 624 -267 125 -86 336 -297 417
-418 207 -305 304 -622 304 -988 -1 -657 -376 -1250 -965 -1528 -227 -107
-540 -173 -729 -154 -80 8 -331 56 -450 86 -473 121 -913 520 -1105 1005 -239
604 -111 1295 331 1778 82 90 212 201 309 263 88 58 321 159 436 189 182 49
319 64 533 59 149 -3 219 -9 295 -25z m-1552 -387 c-287 -284 -465 -645 -514
-1046 -17 -140 -7 -404 20 -541 71 -351 226 -641 481 -896 157 -158 272 -242
454 -335 71 -36 126 -65 124 -65 -12 0 -121 41 -187 69 -280 123 -542 344
-718 606 -130 194 -220 426 -264 685 -19 111 -17 394 4 510 64 352 207 640
440 886 66 70 231 214 245 214 2 0 -37 -39 -85 -87z m285 -2882 c115 -58 275
-111 425 -141 l57 -11 0 -54 0 -53 -47 -11 c-123 -31 -225 -105 -278 -203 -25
-45 -30 -67 -33 -144 -9 -199 74 -314 273 -377 l80 -25 3 -186 c1 -102 0 -186
-3 -186 -3 0 -19 7 -34 14 -42 22 -89 81 -101 126 -18 68 -38 80 -130 80 -74
0 -83 -2 -107 -26 -23 -23 -25 -31 -20 -75 12 -100 70 -188 165 -250 l44 -28
-34 -5 c-120 -17 -472 -46 -477 -39 -130 177 -198 368 -208 584 -11 248 46
454 180 654 49 72 164 194 230 242 48 36 59 59 31 70 -23 8 -55 -12 -139 -89
-196 -181 -323 -432 -355 -703 -29 -241 40 -530 172 -723 17 -24 28 -45 25
-48 -2 -2 -28 -5 -56 -7 l-53 -2 -37 65 c-261 457 -193 1035 168 1432 55 60
169 148 192 148 5 0 35 -13 67 -29z m1545 -188 c195 -245 279 -478 280 -778 0
-192 -31 -344 -109 -522 -18 -41 -21 -43 -65 -43 -25 0 -48 3 -52 6 -3 4 9 37
28 75 183 363 148 808 -90 1144 -66 92 -120 146 -139 139 -27 -10 -19 -31 37
-97 275 -324 332 -772 146 -1154 l-49 -103 -293 0 -293 0 45 48 c137 142 146
373 20 525 -37 45 -127 88 -231 113 l-78 18 0 173 c0 95 3 173 6 173 21 0 65
-47 83 -89 29 -68 51 -81 134 -81 59 0 71 3 92 25 14 13 25 34 25 47 0 43 -56
142 -107 189 -57 53 -95 75 -173 100 -53 16 -55 18 -58 54 l-3 37 38 -6 c201
-29 540 0 701 59 20 7 40 14 44 14 4 1 31 -29 61 -66z m-1970 -55 c-66 -97
-142 -270 -174 -395 -25 -95 -32 -147 -36 -264 -9 -234 34 -431 138 -636 45
-89 46 -93 25 -93 -19 0 -32 18 -74 98 -139 266 -176 563 -106 847 25 99 82
238 134 325 44 73 115 170 125 170 2 0 -12 -24 -32 -52z m903 -515 c-10 -10
-84 40 -100 68 -22 37 -23 107 -2 147 9 17 35 42 58 56 l43 26 3 -147 c1 -80
0 -148 -2 -150z m272 -338 c55 -23 79 -51 92 -106 11 -44 10 -53 -10 -93 -21
-43 -59 -76 -107 -91 l-23 -6 0 155 c0 86 2 156 5 156 3 0 22 -7 43 -15z
m1132 -369 c0 -7 -3 -28 -6 -45 -5 -24 -12 -31 -30 -31 -29 0 -29 1 -4 50 20
40 40 53 40 26z m-2528 -96 l47 -89 -32 -6 c-102 -17 -225 -35 -243 -35 -17 0
-27 16 -55 88 -19 48 -35 90 -37 93 -2 5 164 29 258 38 10 0 32 -31 62 -89z
m2638 14 c0 -2 -11 -4 -25 -4 -18 0 -25 5 -25 20 0 20 1 20 25 4 14 -9 25 -18
25 -20z m-6386 -4332 c144 -93 336 -168 499 -193 76 -12 254 -8 289 6 13 5 20
-1 31 -27 15 -36 92 -112 123 -122 18 -5 19 -18 19 -183 0 -149 4 -196 23
-288 52 -242 132 -431 225 -531 l57 -62 0 -65 c0 -212 153 -548 344 -754 l66
-71 0 -82 c0 -131 65 -296 152 -386 47 -49 56 -44 -116 -75 -167 -29 -229 -18
-317 57 -26 21 -60 46 -76 55 -19 10 -43 40 -63 78 -18 34 -46 69 -64 81 -28
18 -29 20 -8 20 12 0 22 5 22 10 0 15 -46 57 -105 95 -185 118 -323 436 -342
781 l-6 113 57 -6 c89 -9 79 13 -86 189 -144 153 -190 209 -253 303 -120 181
-212 425 -219 581 -4 75 -22 134 -43 134 -22 0 -158 135 -203 200 -39 58 -83
139 -95 179 -8 27 -15 29 89 -37z m6086 -649 c88 -16 349 -23 386 -10 20 7 21
3 27 -90 11 -170 94 -400 191 -532 14 -19 23 -38 20 -43 -4 -5 -6 -36 -5 -69
1 -65 25 -132 65 -179 15 -18 28 -53 36 -97 75 -419 251 -753 451 -856 69 -35
52 -42 -108 -42 -113 0 -123 2 -143 22 -11 12 -48 41 -82 64 -151 103 -305
282 -384 445 -45 94 -84 231 -84 295 0 31 4 38 25 43 14 4 25 13 25 20 0 8
-35 45 -77 82 -116 102 -283 271 -332 338 -101 136 -166 288 -180 419 -8 79
-4 154 10 163 5 3 9 17 9 31 0 24 2 25 33 19 17 -4 70 -14 117 -23z"/>
<path d="M7908 17677 c-60 -30 -100 -112 -133 -272 -33 -162 -88 -492 -118
-705 -13 -96 -28 -183 -32 -192 -5 -12 -2 -20 11 -25 12 -4 24 2 41 23 47 59
72 173 108 504 30 272 55 455 70 515 17 68 59 115 102 115 76 0 209 -133 279
-279 107 -223 179 -422 208 -578 20 -109 36 -386 34 -598 -2 -187 10 -257 39
-233 38 31 46 78 51 286 8 367 -32 636 -133 884 -41 102 -146 300 -184 348
-15 19 -37 51 -49 71 -29 48 -105 117 -147 135 -59 24 -99 25 -147 1z"/>
<path d="M13240 17174 c-638 -53 -1157 -497 -1301 -1114 -22 -95 -46 -346 -36
-374 4 -11 15 -16 29 -14 22 3 23 8 29 133 11 215 57 387 155 575 155 298 424
536 741 656 196 74 482 103 688 70 438 -72 805 -332 1010 -718 162 -305 202
-649 116 -991 -114 -453 -470 -829 -918 -970 -174 -55 -332 -69 -633 -54 -35
2 -45 -2 -48 -15 -6 -33 43 -41 253 -42 157 -1 218 3 285 17 578 123 1001 539
1130 1112 27 117 37 349 21 470 -44 330 -177 602 -411 836 -215 215 -452 343
-743 398 -103 19 -284 32 -367 25z"/>
<path d="M13322 16998 c-184 -305 -696 -1176 -704 -1200 -10 -26 9 -43 147
-126 72 -44 235 -143 363 -222 158 -96 238 -140 249 -135 10 3 56 31 103 61
47 30 204 128 350 217 230 142 265 167 268 190 2 18 -15 56 -56 124 -33 54
-163 274 -289 488 -352 596 -376 635 -395 635 -9 0 -25 -15 -36 -32z m11 -888
c-5 -4 -62 -30 -128 -58 -66 -28 -210 -92 -319 -141 -110 -50 -202 -89 -204
-86 -6 5 146 268 313 540 203 332 306 499 323 525 16 24 17 2 20 -374 1 -220
-1 -403 -5 -406z m234 500 c215 -361 453 -768 453 -775 0 -10 -121 40 -340
143 -124 57 -241 110 -260 117 l-35 12 -3 404 c-1 232 1 399 7 394 4 -6 85
-138 178 -295z m145 -686 c175 -75 318 -139 318 -143 0 -3 -20 -18 -43 -32
-23 -14 -167 -105 -320 -202 -153 -98 -281 -177 -283 -177 -2 0 -4 155 -4 345
0 190 3 345 7 345 4 0 150 -61 325 -136z m-372 -214 l0 -341 -24 13 c-55 30
-615 384 -616 388 0 11 594 277 623 279 16 1 17 -21 17 -339z"/>
<path d="M12632 15607 c6 -32 719 -1046 736 -1047 7 0 26 19 42 43 16 23 145
209 288 412 322 461 402 580 402 600 0 8 -2 15 -5 15 -23 0 -126 -56 -320
-173 -297 -180 -382 -227 -412 -227 -33 0 -563 290 -668 364 -59 42 -69 44
-63 13z m399 -245 l314 -188 2 -268 c1 -148 -2 -265 -7 -260 -15 17 -630 893
-630 899 0 3 2 5 4 5 2 0 145 -85 317 -188z m926 106 c-24 -35 -158 -227 -297
-428 -139 -201 -259 -372 -266 -380 -12 -12 -14 25 -14 247 l0 262 73 45 c119
74 531 315 540 316 4 0 -12 -28 -36 -62z"/>
<path d="M5357 15586 c-163 -68 -226 -172 -198 -323 34 -187 148 -298 300
-296 150 2 298 106 346 244 18 50 19 143 2 183 l-13 30 -22 -37 c-49 -84 -139
-99 -199 -33 -64 69 -51 155 30 195 l41 20 -40 17 c-21 9 -73 19 -114 21 -63
3 -84 0 -133 -21z"/>
<path d="M7043 15531 c-92 -32 -166 -91 -199 -159 -13 -26 -20 -66 -22 -132
-3 -84 -1 -102 21 -152 64 -144 234 -247 389 -235 153 13 247 109 278 287 9
50 7 170 -3 170 -1 0 -24 -11 -51 -25 -27 -14 -62 -25 -78 -25 -77 0 -138 59
-138 136 0 46 11 64 58 92 l33 19 -43 18 c-63 26 -181 29 -245 6z"/>
<path d="M5889 15054 c-21 -26 -25 -149 -5 -179 9 -14 14 -29 12 -34 -3 -5 1
-14 8 -20 11 -9 12 -20 5 -44 -27 -88 -29 -232 -4 -289 5 -13 3 -18 -8 -18 -9
0 -44 -32 -79 -72 -123 -139 -133 -143 -185 -64 -58 89 -63 90 -63 13 0 -82
19 -123 64 -142 53 -23 98 -9 149 44 42 43 111 137 119 162 7 20 54 -18 110
-89 99 -124 236 -199 379 -209 62 -5 83 -2 121 15 52 23 102 83 118 141 17 68
-17 221 -50 221 -4 0 -7 -38 -7 -85 1 -84 0 -86 -34 -121 -45 -47 -105 -81
-156 -90 -64 -10 -145 34 -279 149 l-110 95 -2 49 c-1 26 -3 64 -4 83 -1 19
-1 74 0 121 l2 86 48 20 c26 12 79 29 117 39 134 33 259 104 290 165 13 25 14
33 4 46 -21 24 -81 10 -168 -41 -43 -26 -131 -64 -195 -86 -64 -21 -116 -38
-116 -37 0 1 -2 30 -4 63 -6 99 -42 150 -77 108z"/>
<path d="M11090 15436 c-181 -29 -307 -69 -465 -147 -303 -149 -543 -389 -694
-694 -65 -132 -99 -232 -132 -387 -30 -137 -32 -416 -6 -553 96 -493 394 -890
832 -1108 202 -101 380 -145 616 -154 182 -7 298 5 456 47 496 130 896 508
1062 1006 46 138 71 301 71 467 0 228 -34 404 -116 599 -196 465 -616 808
-1113 909 -127 26 -393 33 -511 15z m322 -46 c215 -18 389 -68 577 -165 398
-207 685 -598 768 -1048 26 -139 23 -410 -5 -543 -31 -146 -65 -244 -128 -372
-207 -419 -600 -713 -1067 -799 -140 -26 -401 -23 -537 6 -305 64 -542 193
-761 411 -209 208 -336 440 -401 730 -20 91 -23 131 -23 310 0 162 4 223 19
290 145 668 684 1135 1366 1183 25 2 52 4 60 5 8 1 68 -3 132 -8z"/>
<path d="M11271 15071 c-6 -20 -23 -89 -40 -154 -16 -65 -31 -120 -33 -122 -2
-3 -88 17 -191 42 -102 26 -189 44 -193 41 -4 -5 -51 -175 -54 -195 0 -1 35
-9 77 -19 42 -10 91 -28 107 -39 59 -40 58 -47 -58 -515 -58 -234 -112 -439
-120 -457 -20 -42 -53 -48 -146 -23 -41 10 -75 18 -77 17 -1 -2 -22 -50 -47
-107 -40 -93 -43 -106 -28 -112 9 -4 91 -26 182 -48 91 -22 170 -42 177 -45 8
-2 -1 -52 -28 -161 -28 -111 -37 -159 -29 -164 19 -12 170 -44 176 -38 3 4 22
71 41 150 20 78 38 146 42 150 6 8 131 -20 144 -32 5 -4 -8 -72 -27 -150 -20
-79 -36 -149 -36 -155 0 -12 176 -63 184 -54 2 2 21 74 42 159 26 101 44 154
52 152 7 -1 66 -7 132 -14 210 -21 341 12 433 111 83 89 127 205 127 336 0
121 -41 191 -166 281 l-29 22 30 11 c82 31 146 88 176 158 70 163 38 316 -85
417 -50 40 -172 108 -228 126 -21 6 -38 15 -38 19 0 4 16 71 35 150 19 78 35
148 35 155 0 10 -178 62 -185 54 -1 -2 -19 -72 -40 -156 -27 -109 -41 -152
-50 -148 -7 2 -41 10 -74 17 -34 6 -63 14 -65 18 -2 3 13 74 34 156 21 83 37
152 35 153 -2 2 -44 14 -94 27 l-91 23 -9 -37z m167 -572 c167 -41 289 -118
308 -194 19 -75 -21 -165 -89 -203 -47 -25 -215 -22 -321 7 -44 11 -82 23 -85
26 -3 3 12 77 34 163 49 201 55 222 61 222 3 0 45 -10 92 -21z m-122 -588
c262 -69 374 -151 374 -272 0 -65 -34 -124 -88 -157 -45 -26 -52 -27 -177 -26
-106 1 -149 6 -229 27 -54 15 -101 28 -103 30 -4 4 95 405 103 418 6 11 -10
14 120 -20z"/>
</g>
</svg>
