<svg width="79" height="88" viewBox="0 0 79 88" fill="none" xmlns="http://www.w3.org/2000/svg">
<g clip-path="url(#clip0_912_53009)">
<path d="M70.7956 53.786C70.7956 63.4681 54.9536 71.3117 35.4105 71.3117C15.8674 71.3117 0.0253906 63.4681 0.0253906 53.786C0.0253906 44.1039 15.8674 36.2603 35.4105 36.2603C54.9536 36.2603 70.7956 44.1083 70.7956 53.786Z" fill="#2DB091"/>
<path d="M70.7702 63.9582C70.7702 73.9308 54.9282 82.0172 35.3851 82.0172C15.842 82.0172 0 73.9308 0 63.9582V53.7861C0 63.4639 15.842 71.3119 35.3851 71.3119C54.9282 71.3119 69.445 64.1013 70.6844 54.9828C70.7187 58.1307 70.7702 63.117 70.7702 63.9582Z" fill="#447A6F"/>
<path d="M66.7088 52.75C66.7088 53.6389 66.5158 54.5104 66.1427 55.3516C63.368 49.0342 50.6523 44.2647 35.3892 44.2647C20.1262 44.2647 7.40624 49.0342 4.63152 55.3516C4.25842 54.5104 4.06543 53.6389 4.06543 52.75C4.06543 45.1926 18.0891 39.0659 35.3892 39.0659C52.6894 39.0659 66.7088 45.1926 66.7088 52.75Z" fill="#3C8D7B"/>
<path d="M66.143 55.3516C63.364 61.6646 50.6483 66.4341 35.3896 66.4341C20.1308 66.4341 7.41084 61.6646 4.63184 55.3516C7.40655 49.0341 20.1222 44.2646 35.3896 44.2646C50.6569 44.2646 63.3683 49.0341 66.143 55.3516Z" fill="url(#paint0_linear_912_53009)"/>
<path d="M70.7956 19.9186C70.7956 29.6267 54.9536 37.4964 35.4105 37.4964C15.8674 37.4964 0.0253906 29.6267 0.0253906 19.9186C0.0253906 10.2105 15.8674 2.34082 35.4105 2.34082C54.9536 2.34082 70.7956 10.2105 70.7956 19.9186Z" fill="#525A5A"/>
<path opacity="0.7" d="M70.7956 17.4383C70.7956 27.064 54.9536 34.86 35.4105 34.86C15.8674 34.86 0.0253906 27.064 0.0253906 17.4383C0.0253906 7.81256 15.8674 0.0166016 35.4105 0.0166016C54.9536 0.0166016 70.7956 7.8169 70.7956 17.4383Z" fill="url(#paint1_linear_912_53009)"/>
<path d="M45.6652 57.619C45.6652 60.5457 41.0635 62.9175 35.3897 62.9175C29.7159 62.9175 25.1143 60.5457 25.1143 57.619V52.3205C26.6581 50.3997 31.1097 52.3205 35.3897 52.3205C39.6697 52.3205 44.2499 50.5991 45.6652 52.65C46.0468 53.205 45.6652 56.9946 45.6652 57.619Z" fill="#418274"/>
<path d="M45.6651 52.6544C45.6651 55.5812 41.0635 57.9529 35.3897 57.9529C29.7159 57.9529 25.1143 55.5812 25.1143 52.6544C25.1143 49.7277 29.7159 47.356 35.3897 47.356C41.0635 47.356 45.6651 49.7277 45.6651 52.6544Z" fill="#1BDBAD"/>
<path d="M40.9602 52.3251C40.9602 53.9033 38.4771 55.1868 35.4108 55.1868C32.3444 55.1868 29.8613 53.9077 29.8613 52.3251C29.8613 50.7425 32.3444 49.4634 35.4108 49.4634C38.4771 49.4634 40.9602 50.7425 40.9602 52.3251Z" fill="#3C8D7B"/>
<path d="M15.5078 42.1748L17.1418 43.2025L18.6771 42.7298L16.996 41.6719L15.5078 42.1748Z" fill="#525A5A"/>
<path d="M4.68281 55.4641L6.81852 54.9872L6.34678 53.7861L4.27539 54.3411L4.68281 55.4641Z" fill="#525A5A"/>
<path d="M6.81931 54.9873L6.74211 58.2913C6.74211 58.2913 5.16392 56.9038 4.68359 55.4643L6.81931 54.9873Z" fill="#333336"/>
<path d="M15.7988 63.4291L17.3642 62.2671L18.7494 62.64L17.3642 63.9407L15.7988 63.4291Z" fill="#525A5A"/>
<path d="M18.7495 62.6401V64.3442L17.3643 63.9409L18.7495 62.6401Z" fill="#333336"/>
<path d="M17.1418 43.2024L17.0903 48.6787L15.5078 47.6077V42.1748L17.1418 43.2024Z" fill="#333336"/>
<path d="M18.6766 42.7295V48.2101L17.0898 48.6784L17.1413 43.2021L18.6766 42.7295Z" fill="#333336"/>
<path d="M35.5825 64.3442H33.8242V66.4341H35.5825V64.3442Z" fill="#525A5A"/>
<path d="M50.4463 63.4292L52.0245 64.344L53.83 63.8107L52.1403 62.8481L50.4463 63.4292Z" fill="#5E6565"/>
<path d="M66.6571 51.9868H64.1611L64.2984 52.893H66.7086L66.6571 51.9868Z" fill="#525A5A"/>
<path d="M35.9468 39.0874H34.0684V41.1079H35.9468V39.0874Z" fill="#5E6565"/>
<path d="M34.0684 41.1079L34.1884 46.2633L35.9468 46.272V41.1079H34.0684Z" fill="#333336"/>
<path d="M53.7663 41.6719L52.3896 42.4697L54.0879 43.1071L55.4688 42.2442L53.7663 41.6719Z" fill="#525A5A"/>
<path d="M54.0879 43.107V48.5962L55.4688 47.4472V42.2441L54.0879 43.107Z" fill="#333336"/>
<path d="M52.3896 42.4697V47.8896L54.0879 48.5964V43.1071L52.3896 42.4697Z" fill="#2DB091"/>
<path d="M50.4463 63.4292V64.7517L52.0245 64.3441L50.4463 63.4292Z" fill="#747A7A"/>
<path d="M64.2984 52.8931L64.1611 58.1612C64.1611 58.1612 66.6228 56.067 66.7086 52.8931H64.2984Z" fill="#333336"/>
<path d="M35.0505 5.9438L45.7033 4.591C45.7033 4.591 47.4145 4.52162 47.8605 5.45818C48.3065 6.39474 47.2258 7.15352 47.2258 7.15352L40.9387 10.826L48.894 15.4394C48.894 15.4394 54.5721 19.2594 50.0005 23.8294C45.4288 28.3995 36.5386 26.7908 35.5093 26.4787C34.4801 26.1665 31.2422 24.818 28.9821 23.4652L26.722 22.1124C26.722 22.1124 18.4236 24.9698 11.5619 21.0198C11.5619 21.0198 10.9615 20.6816 10.8414 20.0312C10.7213 19.3808 11.7935 18.8865 11.7935 18.8865L21.5843 13.1718C21.5843 13.1718 23.9731 11.819 26.4133 11.923C28.8535 12.0271 30.5003 12.3653 32.2457 13.4276C33.9912 14.4942 36.0497 15.7126 36.0497 15.7126C36.0497 15.7126 38.5671 15.3744 40.2139 16.7012C41.8564 18.028 40.5227 19.7407 39.0045 20.2089C37.4907 20.6772 35.638 20.8333 34.0469 20.1049C32.4559 19.3764 32.3787 18.002 32.4816 17.6377L28.2917 15.2487C28.2917 15.2487 26.6749 14.182 24.9766 15.2487C23.2826 16.3153 17.27 19.8187 17.27 19.8187C17.27 19.8187 21.4857 21.0414 24.6678 19.0903C24.6678 19.0903 25.4398 18.4659 26.4647 18.5179C27.494 18.57 27.9057 18.7 28.4932 19.0382C29.0851 19.3764 35.7152 23.1444 35.7152 23.1444C35.7152 23.1444 40.081 25.1172 44.2967 23.0923C48.5123 21.0675 46.5053 18.1841 45.2745 17.3776C44.0393 16.5711 32.7604 10.0542 32.7604 10.0542C32.7604 10.0542 31.0664 8.5757 32.2972 7.24891C33.5323 5.92212 35.0462 5.93079 35.0462 5.93079L35.0505 5.9438Z" fill="#1BDBAD"/>
<path d="M40.1622 50.8507L44.4679 50.17L52.7835 43.8439L51.2353 43.2021L39.2359 47.7418L39.0986 50.1873L40.1622 50.8507Z" fill="#525A5A"/>
<path d="M52.7837 43.8438V49.0338L46.368 54.8483L45.6604 54.7659V52.5329C45.6604 52.5329 45.6561 51.1801 44.4639 50.1698L52.7794 43.8438H52.7837Z" fill="#333336"/>
<path d="M40.1797 53.7863L57.3898 53.7603V52.75H40.5185L40.1797 53.7863Z" fill="#525A5A"/>
<path d="M57.3898 53.7603V58.7162H45.6648L45.5576 53.7603H57.3898Z" fill="#333336"/>
<path d="M13.4361 67.531V78.1236C5.24923 74.8153 0 69.6989 0 63.9582V53.7861C0 59.3578 5.24923 64.3224 13.4361 67.531Z" fill="#33A389"/>
<path d="M34.7937 71.3073V82.0127C26.7268 81.9477 19.3247 80.5038 13.4365 78.1234V67.5308C19.3247 69.8418 26.7268 71.2423 34.7937 71.3073Z" fill="#3C8D7B"/>
</g>
<defs>
<linearGradient id="paint0_linear_912_53009" x1="4.63184" y1="55.3516" x2="66.143" y2="55.3516" gradientUnits="userSpaceOnUse">
<stop stop-color="#1BDBAD"/>
<stop offset="1" stop-color="white"/>
</linearGradient>
<linearGradient id="paint1_linear_912_53009" x1="0.0253906" y1="17.4383" x2="70.7956" y2="17.4383" gradientUnits="userSpaceOnUse">
<stop stop-color="#1BDBAD"/>
<stop offset="1" stop-color="#757B7B"/>
</linearGradient>
<clipPath id="clip0_912_53009">
<rect width="79" height="87" fill="white" transform="translate(0 0.0166016)"/>
</clipPath>
</defs>
</svg>
