<svg width="1637" height="555" viewBox="0 0 1637 555" fill="none" xmlns="http://www.w3.org/2000/svg">
<g clip-path="url(#clip0_910_54908)">
<path d="M1342.77 354.74L1334.23 349.73L1331.31 351.47V348.02L1324.7 344.14L1316.61 349.09L1321.88 345.87C1323.16 345.09 1323.15 343.22 1321.87 342.45L1302.18 330.64L1302.25 330.6L1282.28 318.71L1317.83 296.06C1318.08 295.9 1318.29 295.71 1318.47 295.51C1318.48 295.5 1318.5 295.48 1318.51 295.47C1318.68 295.27 1318.83 295.07 1318.94 294.84C1318.96 294.81 1318.97 294.78 1318.98 294.75C1319.07 294.56 1319.14 294.36 1319.19 294.16C1319.2 294.11 1319.22 294.07 1319.23 294.02C1319.27 293.82 1319.29 293.61 1319.29 293.4C1319.29 293.3 1319.29 293.21 1319.28 293.11C1319.28 292.99 1319.25 292.87 1319.23 292.75C1319.07 291.88 1318.57 291.07 1317.7 290.57L1296.53 278.38C1296.65 277.16 1296.72 275.92 1296.72 274.67C1296.72 254.53 1280.39 238.2 1260.25 238.2C1240.11 238.2 1223.78 254.53 1223.78 274.67C1223.78 276.13 1223.87 277.58 1224.04 279L1200.37 293.06C1199.43 293.62 1198.25 293.62 1197.3 293.06L1181.26 283.4C1181.18 283.34 1181.12 283.28 1181.06 283.21C1181.06 283.2 1180.91 282.81 1180.99 282.5C1181.07 282.18 1181.61 281.87 1181.62 281.87L1181.73 281.8L1216.23 261.22C1216.73 260.92 1217.1 260.51 1217.34 260.05C1217.45 259.85 1217.53 259.63 1217.58 259.42C1217.59 259.38 1217.61 259.34 1217.61 259.29C1217.65 259.09 1217.68 258.88 1217.68 258.68C1217.68 258.6 1217.68 258.52 1217.67 258.43C1217.67 258.3 1217.64 258.18 1217.62 258.05C1217.47 257.24 1217 256.48 1216.18 256.02L1198.88 246.12C1215.7 236.03 1228.3 228.47 1229.47 227.76L1231.06 226.81C1232.68 225.84 1233.49 224.18 1233.49 222.52L1233.57 211.05C1233.89 211.03 1234.2 210.94 1234.49 210.77L1258.24 196.13C1259.52 195.34 1259.5 193.47 1258.21 192.7L1256.25 191.55L1258.24 190.32C1259.52 189.53 1259.5 187.66 1258.21 186.89L1256.25 185.74C1257.26 185.12 1257.89 184.73 1257.97 184.68C1258.35 184.44 1258.6 184.37 1258.87 183.88C1258.99 183.69 1259.09 183.48 1259.14 183.27C1259.14 183.27 1259.14 183.27 1259.14 183.26C1259.34 182.72 1259.16 182.22 1258.94 181.86C1258.92 181.82 1258.89 181.79 1258.87 181.75C1258.82 181.68 1258.77 181.61 1258.72 181.55C1258.67 181.49 1258.62 181.43 1258.57 181.38C1258.5 181.31 1258.46 181.28 1258.46 181.29C1258.38 181.22 1223.65 160.74 1223.65 160.74L1232.85 155.27L1276.67 181.5C1278.81 182.78 1281.47 182.79 1283.62 181.52L1339.32 148.68C1340 148.28 1340.33 147.58 1340.3 146.88C1340.28 146.23 1340.3 139.11 1340.3 139.09C1340.3 138.42 1339.97 137.75 1339.31 137.37L1310 120.32L1320.55 113.83L1315.21 84.2599L1299.62 75.6899C1304.64 69.4499 1307.65 61.5199 1307.65 52.8899C1307.65 32.7799 1291.35 16.4699 1271.23 16.4699C1251.11 16.4699 1234.81 32.7699 1234.81 52.8899C1234.81 61.8699 1238.07 70.0899 1243.46 76.4399L1230.48 83.9199L1222.56 104.77L1228.83 108.4L1201.14 125.01C1200.49 125.4 1200.17 126.06 1200.17 126.73C1200.17 126.73 1200.2 133.85 1200.17 134.48C1200.14 135.18 1200.46 135.89 1201.14 136.3L1210.93 142.16L1203.04 146.95L1201.65 147.79L1182.14 136.3C1180.93 135.59 1179.44 135.58 1178.23 136.29L1172.32 139.72H1172.3L1171.35 140.28L1163.74 144.7L1162.32 145.52L1158.28 147.87C1155.49 146.35 1152.46 144.93 1149.23 143.63L1132.23 133.43C1160.14 126.93 1179.44 112.97 1179.44 96.7799C1179.44 95.8099 1179.35 94.8599 1179.21 93.9099C1179.35 92.9699 1179.44 92.0199 1179.44 91.0599C1179.44 68.8699 1142.5 50.8799 1096.93 50.8799C1051.36 50.8799 1014.42 68.8699 1014.42 91.0599C1014.42 92.0199 1014.51 92.9599 1014.65 93.9099C1014.51 94.8599 1014.42 95.8099 1014.42 96.7799C1014.42 112.56 1032.79 126.23 1059.59 132.93L1024.17 154.18L1010.78 146.45C1009.46 145.69 1007.84 145.69 1006.52 146.45L996.78 152.11L990.21 148.1L990.27 148.07L988.64 147.07L988.58 147.1L974.56 138.55L986.49 131.59C988.21 130.58 988.74 128.55 988.07 126.91C988.74 125.28 988.23 123.26 986.53 122.24L947.62 98.8899C947.62 97.8699 947.62 97.2599 947.62 97.2599C947.62 94.1499 947.62 89.6399 947.62 88.8599C947.62 88.8399 947.62 88.8099 947.62 88.7899V88.7399C947.6 88.0299 947.25 87.3299 946.56 86.9099L931.44 77.8399L931.62 77.7299V17.3899C931.62 17.0599 931.48 16.7799 931.26 16.5799C930.32 15.2399 928.45 15.4399 927.72 15.8699L890.2 37.6899C889.65 38.0099 889.32 38.5899 889.32 39.2299V78.5599L872.97 88.1499C872.15 88.6299 871.77 89.4699 871.79 90.2899C871.79 90.2899 871.8 95.4299 871.8 98.7699H871.79C871.79 98.7699 871.79 99.4299 871.79 100.51L834.6 122.51C833.37 123.24 833.36 128.46 834.58 129.2L885.13 159.74C887.31 161.06 890.05 161.06 892.23 159.75L902.77 153.43C903.96 152.72 905.45 152.72 906.64 153.43L924.06 163.88C926.23 165.18 928.94 165.2 931.13 163.92L951.2 152.21L974.12 165.28L971.04 167.07C970.31 167.49 970.02 168.27 970.13 169H970.12V178.22C970.11 178.34 970.11 178.46 970.12 178.58V178.69C970.12 178.69 970.12 178.93 970.31 179.27C970.33 179.31 970.35 179.34 970.37 179.37C970.38 179.39 970.4 179.41 970.41 179.43C970.56 179.66 970.76 179.88 971.02 180.03L971.33 180.21C971.85 180.52 973.8 181.72 976.01 183.08L959.76 192.83C957.75 194.04 956.99 196.31 957.48 198.32C957.38 197.94 957.32 197.55 957.33 197.12L957.13 222.49C957.13 222.49 956.94 223.8 957.96 225.24C958.35 225.84 958.88 226.37 959.56 226.78L977.53 237.56L965.26 244.69C964.62 245.06 964.3 245.69 964.27 246.34C964.27 246.32 964.27 246.31 964.27 246.3V246.35C964.27 246.35 964.27 246.43 964.27 246.47V260.79C964.27 260.79 964.27 260.87 964.27 260.91V260.98C964.27 260.98 964.23 261.54 964.58 261.94C964.58 261.94 964.6 261.96 964.61 261.97L934.51 279.98C935.55 279.36 935.92 277.88 935.3 276.83L926.65 262.3C926.37 261.82 925.75 261.67 925.28 261.95L924.67 262.32C925.33 261.93 925.31 260.97 924.65 260.59L920.36 258.17C924.44 254.9 927.07 249.89 927.07 244.25C927.07 234.4 919.09 226.42 909.24 226.42C906.94 226.42 904.76 226.87 902.74 227.66C902.42 218.09 894.59 210.43 884.94 210.43C875.29 210.43 867.11 218.41 867.11 228.26C867.11 234.53 870.35 240.03 875.24 243.21L866.93 248.19C865.66 248.94 864.35 249.76 863.95 250.98C863.88 251.08 863.82 251.18 863.77 251.29L852.9 275.95C852.36 277.17 852.57 278.54 853.35 279.54L833.74 291.17C832.4 291.96 831.83 293.39 831.98 294.75L831.95 294.73C831.97 295.2 832.15 295.66 832.35 296.04C832.37 296.09 832.4 296.13 832.43 296.18C832.73 296.7 833.05 297.05 833.05 297.05L833.49 297.32C833.57 297.38 833.63 297.45 833.71 297.5L885.37 328.49C885.44 328.53 885.51 328.56 885.57 328.59C886.12 328.91 886.74 329.23 887.96 329.41C887.98 329.41 888 329.41 888.02 329.41C888.38 329.46 888.77 329.5 889.24 329.52C891.46 329.62 893.39 328.11 893.39 328.11C893.39 328.11 965.55 286.69 985.92 275L1006.21 287.2L1005.74 287.47L1005.84 287.52L991.91 295.67L990.49 296.5L976.63 304.62L976.45 304.52L975.03 305.35L975.21 305.45L959.61 314.58L958.19 315.41L936.97 327.83C936.86 327.89 936.79 327.98 936.69 328.05C936.78 327.96 936.84 327.92 936.84 327.92C936.84 327.92 936.74 327.99 936.6 328.12C935.94 328.65 935.54 329.36 935.41 330.13C935.41 330.17 935.4 330.21 935.39 330.25C935.37 330.41 935.35 330.57 935.35 330.73C935.35 330.75 935.35 330.76 935.35 330.78C935.35 330.95 935.38 331.11 935.41 331.27C935.44 331.46 935.5 331.63 935.57 331.81C935.59 331.86 935.6 331.9 935.62 331.95C935.8 332.38 936.08 332.77 936.46 333.1C936.71 333.33 936.91 333.46 936.91 333.46L993.2 367.89L975.76 378.29C975.36 378.53 975.07 378.84 974.86 379.2C974.86 379.2 974.86 379.22 974.85 379.23C974.81 379.29 974.79 379.36 974.76 379.43C974.71 379.55 974.66 379.66 974.62 379.78C974.6 379.85 974.58 379.92 974.57 379.99C974.54 380.12 974.53 380.26 974.52 380.39C974.52 380.45 974.52 380.5 974.52 380.56C974.52 380.76 974.54 380.95 974.59 381.14C974.59 381.15 974.59 381.17 974.6 381.18C974.65 381.36 974.71 381.53 974.8 381.69C974.82 381.74 974.85 381.78 974.88 381.83C974.96 381.96 975.05 382.08 975.15 382.2C975.19 382.24 975.22 382.29 975.26 382.33C975.4 382.47 975.55 382.6 975.73 382.71C975.74 382.71 975.75 382.73 975.76 382.73L985.53 388.59L1014.71 406.1V426.8L996.36 437.74C995.86 438.04 995.49 438.44 995.25 438.9C995.15 439.09 995.07 439.29 995.02 439.5C995 439.58 994.98 439.66 994.97 439.74C994.94 439.88 994.92 440.03 994.92 440.18C994.92 440.26 994.92 440.34 994.92 440.42C994.92 440.61 994.95 440.8 994.99 440.99C994.99 441.02 994.99 441.05 995 441.08C995.06 441.3 995.14 441.5 995.25 441.71C995.28 441.77 995.31 441.82 995.35 441.87C995.44 442.03 995.55 442.17 995.68 442.31C995.72 442.35 995.76 442.4 995.8 442.44C995.97 442.61 996.16 442.77 996.39 442.91L1039.73 468.39L1052.74 476.04C1053.37 476.41 1054.05 476.69 1054.74 476.88C1054.95 476.94 1055.16 476.96 1055.37 477C1055.51 477.03 1055.65 477.06 1055.79 477.08C1055.94 477.1 1056.1 477.1 1056.25 477.11C1056.45 477.12 1056.65 477.15 1056.85 477.15C1056.98 477.15 1057.12 477.13 1057.25 477.12C1057.47 477.11 1057.69 477.1 1057.91 477.07C1058.04 477.05 1058.17 477.01 1058.29 476.99C1058.51 476.95 1058.73 476.91 1058.95 476.85C1058.97 476.85 1058.99 476.83 1059.01 476.83C1059.68 476.64 1060.32 476.36 1060.93 475.99L1154.79 419.07C1154.79 419.07 1154.84 419.03 1154.87 419.01C1155.05 418.89 1155.21 418.76 1155.36 418.62C1155.42 418.56 1155.46 418.51 1155.52 418.45C1155.63 418.32 1155.73 418.19 1155.81 418.05C1155.85 417.99 1155.88 417.93 1155.92 417.87C1156.02 417.67 1156.1 417.46 1156.16 417.25C1156.16 417.22 1156.16 417.19 1156.17 417.16C1156.21 416.97 1156.23 416.78 1156.24 416.59C1156.24 416.51 1156.24 416.43 1156.24 416.34C1156.24 416.2 1156.21 416.06 1156.19 415.93C1156.17 415.84 1156.16 415.75 1156.13 415.66C1156.09 415.51 1156.03 415.37 1155.96 415.23C1155.72 414.71 1155.34 414.25 1154.79 413.92L1137.56 403.73V371.22C1137.56 369.67 1135.87 368.71 1134.54 369.5L1107.08 385.7L1134.56 369.49C1135.89 368.71 1135.87 366.78 1134.52 366.02L1115.7 355.45V331.51C1115.7 329.97 1114.02 329 1112.69 329.78H1112.71C1114.04 328.99 1114.03 327.07 1112.69 326.31L1096.57 317.12C1095.94 316.76 1095.17 316.77 1094.55 317.14L1043.93 347.38L1038.25 343.97C1036.74 343.06 1034.85 343.06 1033.34 343.97L1014.28 355.34L1012.75 354.47L995.3 344.57L993.97 343.81L978.05 334.77L976.83 334.08L975.51 333.33C975.49 333.33 975.48 333.31 975.47 333.3C975.55 333.34 975.61 333.38 975.61 333.38C975.61 333.38 974.95 332.85 974.75 332.32C974.72 332.17 974.7 332.03 974.71 331.88C974.75 331.75 974.83 331.63 974.99 331.54C975.82 331.04 1016.29 306.1 1026.83 299.6L1039.46 307.19C1041.17 308.21 1043.24 308.38 1045.08 307.69C1045.08 307.69 1045.08 307.69 1045.09 307.69C1045.38 307.58 1045.66 307.46 1045.93 307.31L1068.62 294.8C1069.74 294.18 1069.55 293.67 1069.55 293.67L1087.44 303.49C1087.44 303.49 1087.77 303.71 1088.31 304.01L1089.19 304.54C1090.76 305.48 1092.49 306.01 1094.25 306.18C1094.62 306.23 1095 306.26 1095.37 306.27C1095.55 306.27 1095.74 306.25 1095.92 306.23C1095.98 306.23 1096.04 306.23 1096.11 306.22C1096.24 306.21 1096.37 306.2 1096.49 306.18C1098.25 306.02 1099.97 305.48 1101.54 304.54L1102.58 303.91C1102.58 303.91 1102.66 303.86 1102.7 303.85L1102.9 303.72C1103.26 303.51 1103.48 303.37 1103.48 303.37C1103.48 303.37 1130.19 287.34 1159.03 270.04L1169.4 276.4L1167.83 277.37L1167.48 277.59L1151.89 287.24L1151.82 287.28C1149.93 288.45 1149.92 291.21 1151.82 292.38L1156.34 295.19C1156.6 295.35 1156.89 295.46 1157.18 295.54L1197.34 319.61C1198.29 320.18 1199.48 320.18 1200.44 319.6L1232.68 300.06C1236.27 305.24 1240.68 310.31 1243.43 314.36C1244.09 315.32 1244.65 316.24 1245.15 317.11L1201.76 343.15C1201.15 343.52 1200.84 344.13 1200.8 344.75V344.81C1200.8 344.81 1200.8 344.88 1200.8 344.92V354.37C1200.71 355.12 1201.02 355.93 1201.76 356.38L1219.98 367.31L1239.09 378.78L1259.36 390.94C1260.88 391.85 1262.78 391.84 1264.29 390.92L1304.64 366.24L1322.45 376.63C1323.12 377.02 1324.83 376.95 1325.49 376.53L1343.83 364.87C1344.12 364.69 1344.29 364.37 1344.29 364.03V357.36C1344.29 356.58 1343.49 355.13 1342.83 354.74H1342.77ZM1217.18 209.86L1224.05 205.74L1217.18 209.86ZM960.17 201.66L960.88 202.09C960.88 202.09 960.58 201.94 960.17 201.66ZM868.58 251.93L884.91 261.02L868.58 251.93ZM892.28 305.23C892.01 305.39 891.72 305.52 891.43 305.62C891.43 305.62 891.45 305.62 891.46 305.61L898.57 301.43L907.01 296.42L892.28 305.24V305.23ZM909.27 295.07L907.03 296.41L909.27 295.06V295.07ZM928.96 283.3L927.05 284.44V284.37L928.96 283.22V283.29V283.3ZM964.91 247.9C965.01 247.99 965.11 248.07 965.23 248.14C965.23 248.14 965.08 248.06 964.91 247.9ZM1043.5 409.67L1042 408.77L1043.5 409.67Z" stroke="url(#paint0_linear_910_54908)" stroke-miterlimit="10"/>
<path opacity="0.3" d="M1221.76 256.05L1636.65 13.4702" stroke="url(#paint1_linear_910_54908)" stroke-miterlimit="10"/>
<path opacity="0.3" d="M1026.17 460.45L864.9 554.38" stroke="url(#paint2_linear_910_54908)" stroke-miterlimit="10"/>
<path opacity="0.3" d="M867.41 149.04L0.209961 554.38" stroke="url(#paint3_linear_910_54908)" stroke-miterlimit="10"/>
<path opacity="0.7" d="M889.43 145.17L925.71 143.23L929.1 149.37L1003.39 158.15L1049.36 130.33L967.63 120.86L950.82 102.12L875.72 106.14L889.43 145.17Z" fill="url(#paint4_linear_910_54908)"/>
<path opacity="0.7" d="M889.8 313.99L950.66 313.76L1014.82 339.79L1058.68 328.19L1070.09 278.13L1018.58 279.69L1006.31 271.94L943.86 275.33L889.8 313.99Z" fill="url(#paint5_linear_910_54908)"/>
<path opacity="0.7" d="M1055.15 461.88L1252.15 415.88L1266.15 390.88L1091.15 377.88L1055.15 461.88Z" fill="url(#paint6_linear_910_54908)"/>
<path opacity="0.7" d="M1095.9 290.71L1174.15 289.88L1200.96 304.05L1245.15 304.88L1259.88 375.4L1324.47 360.15L1334.15 354.88L1438.15 332.88L1446.15 302.88L1291.15 293.88L1294.48 273.22L1251.15 258.88L1201.15 283.88L1228.15 252.88L1150.15 256.88L1095.9 290.71Z" fill="url(#paint7_linear_910_54908)"/>
<path opacity="0.7" d="M1277.27 165.93L1417.02 163.65L1429.69 125.13L1273.66 92.6899L1277.27 165.93Z" fill="url(#paint8_linear_910_54908)"/>
<path d="M907.13 281.15L905.62 274.29L907.13 269.32L928.91 258.54L932.68 265.78L907.13 281.15Z" fill="#525A5A"/>
<path d="M971.6 164.49L991.25 176.25L1031.21 152.04L1011.38 140.59C1010.06 139.83 1008.44 139.83 1007.12 140.59L971.63 161.2C970.37 161.93 970.36 163.74 971.61 164.49H971.6Z" fill="#DDDFDF"/>
<path d="M970.69 153.44V163.14C970.69 163.14 970.64 163.91 971.88 164.65C973.12 165.39 984.26 172.26 984.26 172.26L990.07 162.85L970.7 153.44H970.69Z" fill="#3E8878"/>
<path d="M1004.9 143.6L965.159 119.36L943.859 132.14L984.659 155.41L1004.9 143.6Z" fill="#34A188"/>
<path d="M835.17 109.83L911.91 64.4399L987.12 109.57C989.57 111.04 989.55 114.6 987.08 116.05L931.7 148.37C929.51 149.65 926.81 149.63 924.63 148.33L907.21 137.88C906.02 137.17 904.53 137.17 903.34 137.88L892.8 144.2C890.61 145.51 887.88 145.51 885.7 144.19L835.15 113.65C833.71 112.78 833.72 110.69 835.17 109.84V109.83Z" fill="#34A188"/>
<path d="M835.17 106.96L911.91 61.5698L987.12 106.7C989.57 108.17 989.55 111.73 987.08 113.18L931.7 145.5C929.51 146.78 926.81 146.76 924.63 145.46L907.21 135.01C906.02 134.3 904.53 134.3 903.34 135.01L892.8 141.33C890.61 142.64 887.88 142.64 885.7 141.32L835.15 110.78C833.71 109.91 833.72 107.82 835.17 106.97V106.96Z" fill="url(#paint9_linear_910_54908)"/>
<path d="M1201.75 120.73L1277.27 165.93C1279.41 167.21 1282.07 167.22 1284.22 165.95L1339.92 133.11C1340.6 132.71 1340.93 132.01 1340.9 131.31C1340.88 130.66 1340.9 123.52 1340.9 123.52L1261.18 83.86C1260.01 83.18 1258.57 83.19 1257.41 83.89L1200.76 111.16C1200.76 111.16 1200.79 118.28 1200.76 118.91C1200.73 119.61 1201.05 120.32 1201.73 120.73H1201.75Z" fill="#5A6262"/>
<path d="M1201.75 112.88L1277.27 158.08C1279.41 159.36 1282.07 159.37 1284.22 158.1L1339.92 125.26C1341.24 124.48 1341.23 122.58 1339.91 121.81L1261.19 76.0197C1260.02 75.3397 1258.58 75.3497 1257.42 76.0497L1201.74 109.46C1200.44 110.24 1200.45 112.12 1201.74 112.89L1201.75 112.88Z" fill="url(#paint10_linear_910_54908)"/>
<path d="M1231.09 68.3499L1272.14 44.6899L1315.81 68.6899L1273.66 92.6899L1231.09 68.3499Z" fill="url(#paint11_linear_910_54908)"/>
<path d="M1269.07 138.59L1309.92 114.72L1310.84 94.9199L1269.41 118.92L1269.07 138.59Z" fill="#5A6262"/>
<path d="M1197.41 135.17L1213.09 125.65C1214.42 124.84 1216.08 124.85 1217.41 125.67L1234.82 136.41C1235.76 136.99 1235.74 138.35 1234.8 138.91L1219.35 148.09L1197.41 135.17V135.17Z" fill="#1BDBAD"/>
<path d="M1308.25 37.3297C1308.25 57.4397 1291.95 73.7497 1271.83 73.7497C1251.71 73.7497 1235.41 57.4497 1235.41 37.3297C1235.41 17.2097 1251.72 0.909668 1271.84 0.909668C1291.96 0.909668 1308.26 17.2097 1308.26 37.3297H1308.25Z" fill="url(#paint12_radial_910_54908)"/>
<path d="M1294.84 22.3997C1294.84 29.1297 1289.39 34.5797 1282.66 34.5797C1275.93 34.5797 1270.48 29.1297 1270.48 22.3997C1270.48 15.6697 1275.93 10.2197 1282.66 10.2197C1289.39 10.2197 1294.84 15.6697 1294.84 22.3997Z" fill="url(#paint13_radial_910_54908)"/>
<path d="M1231.09 68.3496L1273.66 92.6896L1278.79 124.34L1269.41 118.92L1269.07 138.59L1232.13 117.37V94.3996L1223.17 89.1996L1231.09 68.3496Z" fill="url(#paint14_linear_910_54908)"/>
<path d="M1315.81 68.6899L1321.15 98.2699L1278.79 124.34L1273.66 92.6899L1315.81 68.6899Z" fill="#757B7B"/>
<path d="M1201.31 329.21L1262.95 301L1322.45 336.7C1323.74 337.47 1323.75 339.34 1322.46 340.12L1264.8 375.38C1263.29 376.3 1261.39 376.31 1259.87 375.4L1202.27 340.84C1201.53 340.39 1201.21 339.59 1201.32 338.83V329.21H1201.31Z" fill="#686F6F"/>
<path d="M1202.28 327.6L1262.96 291.19L1322.46 326.89C1323.75 327.66 1323.76 329.53 1322.47 330.31L1264.81 365.57C1263.3 366.49 1261.4 366.5 1259.88 365.59L1202.28 331.03C1200.99 330.25 1200.99 328.38 1202.28 327.6Z" fill="#A6AAAA"/>
<path d="M1281.72 327.68L1302.83 315.03L1282.86 303.14L1261.15 315.07L1281.72 327.68Z" fill="#757B7B"/>
<path d="M1220.5 351.77V341.97L1241.87 329.24L1260.84 340.06L1239.56 353.4L1239.61 363.23L1220.5 351.77Z" fill="#757B7B"/>
<path d="M1241.87 322.95L1260.84 334.19L1281.72 321.69L1263.16 310.56L1241.87 322.95Z" fill="#A6AAAA"/>
<path d="M1241.87 322.95V329.24L1260.84 340.06V334.19L1241.87 322.95Z" fill="#5A6262"/>
<path d="M1281.72 321.69V327.68L1260.84 340.06V334.19L1281.72 321.69Z" fill="#686F6F"/>
<path d="M1305.16 340.9V350.7L1322.97 361.09C1323.64 361.48 1324.47 361 1324.47 360.23V352.76C1324.47 352.4 1324.28 352.08 1323.97 351.9L1305.15 340.9H1305.16Z" fill="#5A6262"/>
<path d="M1305.16 340.9L1323.96 351.89C1324.27 352.07 1324.66 352.07 1324.98 351.89L1343.36 340.93C1344.01 340.54 1344.01 339.59 1343.36 339.21L1334.82 334.2L1331.9 335.94V332.49L1325.29 328.61L1305.17 340.92L1305.16 340.9Z" fill="#757B7B"/>
<path d="M1311.56 344.62L1331.89 332.47V335.93L1314.66 346.43L1314.68 347.99L1311.56 349.76V344.62Z" fill="#686F6F"/>
<path d="M1311.56 349.76L1314.7 351.63L1314.68 347.99L1311.56 349.76Z" fill="#A6AAAA"/>
<path d="M1326.01 360.99L1344.35 349.33C1344.64 349.15 1344.81 348.83 1344.81 348.49V341.82C1344.81 341.04 1343.96 340.56 1343.3 340.96L1324.96 351.9C1324.66 352.08 1324.47 352.41 1324.47 352.76V360.16C1324.47 360.95 1325.34 361.43 1326.01 361V360.99Z" fill="#686F6F"/>
<path d="M1176.25 269.87L1160 279.66C1159.04 280.24 1157.83 280.23 1156.87 279.64L1152.35 276.83C1150.46 275.66 1150.46 272.9 1152.35 271.73L1168.36 261.82C1169.32 261.22 1170.54 261.22 1171.51 261.82L1176.27 264.74C1178.19 265.92 1178.17 268.71 1176.25 269.87Z" fill="#DDDFDF"/>
<path d="M1155.92 149.08L1233.01 195.21C1233.65 195.59 1234.45 195.59 1235.09 195.2L1258.84 180.56C1260.12 179.77 1260.1 177.9 1258.81 177.13L1182.76 132.34C1181.55 131.63 1180.06 131.62 1178.85 132.33L1155.95 145.63C1154.63 146.4 1154.62 148.29 1155.93 149.08H1155.92Z" fill="url(#paint15_linear_910_54908)"/>
<path d="M1155.92 143.27L1233.01 189.4C1233.65 189.78 1234.45 189.78 1235.09 189.39L1258.84 174.75C1260.12 173.96 1260.1 172.09 1258.81 171.32L1182.76 126.53C1181.55 125.82 1180.06 125.81 1178.85 126.52L1155.95 139.82C1154.63 140.59 1154.62 142.48 1155.93 143.27H1155.92Z" fill="url(#paint16_linear_910_54908)"/>
<path d="M960.14 211.23L1089.73 288.98C1093.53 291.26 1098.28 291.26 1102.08 288.98L1231.67 211.23C1234.91 209.29 1234.91 204.6 1231.67 202.66L1100.02 123.67C1097.49 122.15 1094.32 122.15 1091.79 123.67L960.14 202.66C956.9 204.6 956.9 209.29 960.14 211.23V211.23Z" fill="#9EA2A2"/>
<path d="M957.91 181.58L957.71 206.95C957.71 206.95 957.32 209.55 960.47 211.44C963.62 213.33 1087.98 287.95 1087.98 287.95V262.46L961.47 186.55C961.47 186.55 957.79 184.72 957.91 181.58V181.58Z" fill="#33A389"/>
<path d="M1004.9 141.16L965.159 116.91L943.859 129.69L984.659 152.96L1004.9 141.16Z" fill="url(#paint17_linear_910_54908)"/>
<path d="M971.6 154.8L991.25 166.56L1031.21 142.35L1011.38 130.9C1010.06 130.14 1008.44 130.14 1007.12 130.9L971.63 151.51C970.37 152.24 970.36 154.05 971.61 154.8H971.6Z" fill="#34A188"/>
<path d="M1155.92 137.47L1233.01 183.6C1233.65 183.98 1234.45 183.98 1235.09 183.59L1258.84 168.95C1260.12 168.16 1260.1 166.29 1258.81 165.52L1182.76 120.73C1181.55 120.02 1180.06 120.01 1178.85 120.72L1155.95 134.02C1154.63 134.79 1154.62 136.68 1155.93 137.47H1155.92Z" fill="url(#paint18_linear_910_54908)"/>
<path d="M960.329 185.87L1089.92 263.62C1093.72 265.9 1098.47 265.9 1102.27 263.62L1231.86 185.87C1235.1 183.93 1235.1 179.24 1231.86 177.3L1100.21 98.3099C1097.68 96.7899 1094.51 96.7899 1091.98 98.3099L960.329 177.3C957.089 179.24 957.089 183.93 960.329 185.87V185.87Z" fill="#1BDBAD"/>
<path d="M1180.04 159.34C1180.04 181.67 1143.1 199.76 1097.53 199.76C1051.96 199.76 1015.02 181.66 1015.02 159.34C1015.02 137.02 1051.96 118.92 1097.53 118.92C1143.1 118.92 1180.04 137.02 1180.04 159.34V159.34Z" fill="#2DB091"/>
<path d="M1179.99 182.8C1179.99 205.8 1143.05 224.45 1097.48 224.45C1051.91 224.45 1014.97 205.8 1014.97 182.8V159.34C1014.97 181.66 1051.91 199.76 1097.48 199.76C1143.05 199.76 1176.9 183.13 1179.79 162.1C1179.87 169.36 1179.99 180.86 1179.99 182.8V182.8Z" fill="#447A6F"/>
<path d="M1008.96 184.17V184.2C1008.96 184.2 1008.96 184.17 1008.95 184.15C1008.95 184.16 1008.96 184.16 1008.96 184.17Z" fill="#9EA2A2"/>
<path d="M1170.51 156.95C1170.51 159 1170.06 161.01 1169.19 162.95C1162.72 148.38 1133.07 137.38 1097.48 137.38C1061.89 137.38 1032.23 148.38 1025.76 162.95C1024.89 161.01 1024.44 159 1024.44 156.95C1024.44 139.52 1057.14 125.39 1097.48 125.39C1137.82 125.39 1170.51 139.52 1170.51 156.95Z" fill="#3C8D7B"/>
<path d="M1169.19 162.95C1162.71 177.51 1133.06 188.51 1097.48 188.51C1061.9 188.51 1032.24 177.51 1025.76 162.95C1032.23 148.38 1061.88 137.38 1097.48 137.38C1133.08 137.38 1162.72 148.38 1169.19 162.95Z" fill="url(#paint19_linear_910_54908)"/>
<path d="M1180.04 81.2299C1180.04 103.62 1143.1 121.77 1097.53 121.77C1051.96 121.77 1015.02 103.62 1015.02 81.2299C1015.02 58.8399 1051.96 40.6899 1097.53 40.6899C1143.1 40.6899 1180.04 58.8399 1180.04 81.2299V81.2299Z" fill="#525A5A"/>
<path opacity="0.7" d="M1180.04 75.5096C1180.04 97.7096 1143.1 115.69 1097.53 115.69C1051.96 115.69 1015.02 97.6996 1015.02 75.5096C1015.02 53.3196 1051.96 35.3296 1097.53 35.3296C1143.1 35.3296 1180.04 53.3196 1180.04 75.5096V75.5096Z" fill="url(#paint20_linear_910_54908)"/>
<path d="M1121.44 168.19C1121.44 174.94 1110.71 180.41 1097.48 180.41C1084.25 180.41 1073.52 174.94 1073.52 168.19V155.97C1077.12 151.54 1087.5 155.97 1097.48 155.97C1107.46 155.97 1118.14 152 1121.44 156.73C1122.33 158.01 1121.44 166.75 1121.44 168.19Z" fill="#418274"/>
<path d="M1121.44 156.73C1121.44 163.48 1110.71 168.95 1097.48 168.95C1084.25 168.95 1073.52 163.48 1073.52 156.73C1073.52 149.98 1084.25 144.51 1097.48 144.51C1110.71 144.51 1121.44 149.98 1121.44 156.73Z" fill="#1BDBAD"/>
<path d="M1110.47 155.97C1110.47 159.61 1104.68 162.57 1097.53 162.57C1090.38 162.57 1084.59 159.62 1084.59 155.97C1084.59 152.32 1090.38 149.37 1097.53 149.37C1104.68 149.37 1110.47 152.32 1110.47 155.97Z" fill="#3C8D7B"/>
<path d="M965.809 247.03L1040 291.65C1041.98 292.84 1044.44 292.88 1046.47 291.76L1069.16 279.25C1070.52 278.5 1070.54 276.56 1069.21 275.78L991.699 229.74C991.079 229.37 990.309 229.37 989.679 229.74L965.829 243.59C964.509 244.36 964.499 246.25 965.809 247.04V247.03Z" fill="#3F8777"/>
<path d="M976.34 362.76L1033.89 328.42C1035.4 327.52 1037.29 327.52 1038.8 328.42L1080.07 353.18L1016.53 391.3L976.34 367.18C974.66 366.17 974.67 363.75 976.34 362.74V362.76Z" fill="url(#paint21_linear_910_54908)"/>
<path d="M1080.06 353.19L1016.52 391.31L976.33 367.19C975.05 366.43 974.74 364.83 975.43 363.66C975.63 364.02 975.93 364.33 976.33 364.57L1016.52 388.69L1077.87 351.87L1080.06 353.19V353.19Z" fill="#34A188"/>
<path d="M873.57 108.31L905.95 126.99C907.8 128.06 910.08 128.06 911.94 126.99L947.11 106.73C947.84 106.31 948.21 105.57 948.22 104.84C948.22 104.1 948.22 81.7197 948.22 81.7197H911.8L872.37 83.2297C872.37 83.2297 872.37 105.41 872.37 106.21C872.37 107.03 872.76 107.85 873.57 108.32V108.31Z" fill="url(#paint22_linear_910_54908)"/>
<path d="M973.14 181.58L975.85 183.03L997.48 170.15L994.83 168.56L973.14 181.58Z" fill="#496F68"/>
<path d="M982.81 187.359L985.52 188.819L1007.14 175.929L1004.49 174.339L982.81 187.359Z" fill="url(#paint23_linear_910_54908)"/>
<path d="M1018.56 216.18L1021.27 217.63L1028.3 213.45L1025.58 211.97L1018.56 216.18Z" fill="#496F68"/>
<path d="M1038.46 227.77L1041.17 229.22L1048.2 225.04L1045.48 223.56L1038.46 227.77Z" fill="#496F68"/>
<path d="M1063.47 237.03L1066.47 238.7L1073.11 234.53L1095.9 248.44L1117.82 235.29L1124.49 238.83L1127.48 237.19L1117.6 231.54L1095.9 244.44L1073.52 230.78L1063.47 237.03Z" fill="url(#paint24_linear_910_54908)"/>
<path d="M1191.3 201.37L1212.02 188.89L1209.24 187.33L1188.64 199.76L1191.3 201.37Z" fill="#496F68"/>
<path d="M1188.46 189.249L1191.01 190.789L1202.4 183.899L1200.1 182.459L1188.46 189.249Z" fill="url(#paint25_linear_910_54908)"/>
<path d="M1204.35 179.94L1206.91 181.47L1218.29 174.58L1215.99 173.14L1204.35 179.94Z" fill="#496F68"/>
<path d="M964.84 230.74V245.43C964.84 245.43 964.8 245.99 965.15 246.39C965.5 246.79 965.93 247.1 966.35 247.35C966.77 247.6 1039.99 291.64 1039.99 291.64V277.2L965.8 232.58C965.8 232.58 964.74 232.05 964.83 230.74H964.84Z" fill="#34A188"/>
<path d="M969.479 243.46V238.91C969.479 238.34 970.109 237.98 970.599 238.28L994.09 252.53C994.53 252.8 994.8 253.27 994.81 253.78L994.88 257.84C994.89 258.42 994.25 258.79 993.76 258.48L969.479 243.46V243.46Z" fill="#4C6762"/>
<path d="M1010.12 268.12V264.33C1010.12 263.81 1010.68 263.49 1011.12 263.75L1034.74 277.59C1035.17 277.84 1035.43 278.29 1035.44 278.79L1035.52 283.01C1035.52 283.54 1034.95 283.87 1034.5 283.59L1010.43 268.69C1010.23 268.57 1010.11 268.35 1010.11 268.12H1010.12Z" fill="#4C6762"/>
<path d="M1070.19 263.12L1070.09 278.13C1070.09 278.13 1070.28 278.64 1069.16 279.26C1068.04 279.88 1045.61 292.16 1045.61 292.16V277.72L1068.06 265.43C1068.06 265.43 1069.96 264.92 1070.19 263.13V263.12Z" fill="#4C6762"/>
<path d="M1051.12 132.56L1054.94 134.93L1058.51 133.84L1054.59 131.41L1051.12 132.56Z" fill="#525A5A"/>
<path d="M1025.88 163.21L1030.87 162.11L1029.77 159.34L1024.94 160.62L1025.88 163.21Z" fill="#525A5A"/>
<path d="M1030.87 162.11L1030.69 169.73C1030.69 169.73 1027.01 166.53 1025.89 163.21L1030.87 162.11Z" fill="#333336"/>
<path d="M1051.8 181.58L1055.45 178.91L1058.68 179.76L1055.45 182.77L1051.8 181.58Z" fill="#525A5A"/>
<path d="M1058.68 179.76V183.7L1055.45 182.77L1058.68 179.76Z" fill="#333336"/>
<path d="M1054.94 134.93L1054.82 147.56L1051.12 145.09V132.56L1054.94 134.93Z" fill="#333336"/>
<path d="M1058.51 133.84V146.48L1054.82 147.56L1054.94 134.93L1058.51 133.84Z" fill="#333336"/>
<path d="M1087.98 262.45C1087.98 262.45 1091.24 265.2 1095.9 265.33C1100.56 265.46 1108.11 260.12 1108.11 260.12L1230.6 186.62C1230.6 186.62 1234.25 184.26 1234.26 182L1234.09 206.94C1234.09 206.94 1233.85 209.91 1230.07 212.18C1226.29 214.45 1104.01 287.82 1104.01 287.82C1104.01 287.82 1099.54 290.7 1095.89 290.69C1092.25 290.69 1087.97 287.93 1087.97 287.93V262.44L1087.98 262.45Z" fill="#447A6F"/>
<path d="M1097.93 183.7H1093.83V188.52H1097.93V183.7Z" fill="#525A5A"/>
<path d="M1132.6 181.58L1136.27 183.7L1140.49 182.46L1136.54 180.24L1132.6 181.58Z" fill="#5E6565"/>
<path d="M1170.4 155.19H1164.58L1164.9 157.29H1170.51L1170.4 155.19Z" fill="#525A5A"/>
<path d="M1098.79 125.44H1094.41V130.1H1098.79V125.44Z" fill="#5E6565"/>
<path d="M1094.41 130.1L1094.68 142L1098.79 142.01V130.1H1094.41Z" fill="#333336"/>
<path d="M1140.34 131.4L1137.13 133.25L1141.09 134.71L1144.31 132.72L1140.34 131.4Z" fill="#525A5A"/>
<path d="M1141.09 134.71V147.37L1144.31 144.72V132.72L1141.09 134.71Z" fill="#333336"/>
<path d="M1137.13 133.25V145.74L1141.09 147.37V134.71L1137.13 133.25Z" fill="#2DB091"/>
<path d="M1132.6 181.58V184.63L1136.27 183.7L1132.6 181.58Z" fill="#747A7A"/>
<path d="M1164.9 157.29L1164.58 169.44C1164.58 169.44 1170.32 164.61 1170.52 157.29H1164.9V157.29Z" fill="#333336"/>
<path d="M1096.7 48.9996L1121.54 45.8796C1121.54 45.8796 1125.53 45.7196 1126.57 47.8796C1127.61 50.0396 1125.09 51.7896 1125.09 51.7896L1110.43 60.2596L1128.98 70.8996C1128.98 70.8996 1142.22 79.7096 1131.56 90.2496C1120.9 100.79 1100.17 97.0796 1097.77 96.3596C1095.37 95.6396 1087.82 92.5296 1082.55 89.4096L1077.28 86.2896C1077.28 86.2896 1057.93 92.8796 1041.93 83.7696C1041.93 83.7696 1040.53 82.9896 1040.25 81.4896C1039.97 79.9896 1042.47 78.8496 1042.47 78.8496L1065.3 65.6696C1065.3 65.6696 1070.87 62.5496 1076.56 62.7896C1082.25 63.0296 1086.09 63.8096 1090.16 66.2596C1094.23 68.7196 1099.03 71.5296 1099.03 71.5296C1099.03 71.5296 1104.9 70.7496 1108.74 73.8096C1112.57 76.8696 1109.46 80.8196 1105.92 81.8996C1102.39 82.9796 1098.07 83.3396 1094.36 81.6596C1090.65 79.9796 1090.47 76.8096 1090.71 75.9696L1080.94 70.4596C1080.94 70.4596 1077.17 67.9996 1073.21 70.4596C1069.26 72.9196 1055.24 80.9996 1055.24 80.9996C1055.24 80.9996 1065.07 83.8196 1072.49 79.3196C1072.49 79.3196 1074.29 77.8796 1076.68 77.9996C1079.08 78.1196 1080.04 78.4196 1081.41 79.1996C1082.79 79.9796 1098.25 88.6696 1098.25 88.6696C1098.25 88.6696 1108.43 93.2196 1118.26 88.5496C1128.09 83.8796 1123.41 77.2296 1120.54 75.3696C1117.66 73.5096 1091.36 58.4796 1091.36 58.4796C1091.36 58.4796 1087.41 55.0696 1090.28 52.0096C1093.16 48.9496 1096.69 48.9696 1096.69 48.9696L1096.7 48.9996Z" fill="#1BDBAD"/>
<path d="M1108.62 152.57L1118.65 151L1138.04 136.41L1134.43 134.93L1106.46 145.4L1106.14 151.04L1108.62 152.57Z" fill="#525A5A"/>
<path d="M1138.04 136.41V148.38L1123.08 161.79L1121.43 161.6V156.45C1121.43 156.45 1121.42 153.33 1118.64 151L1138.03 136.41H1138.04Z" fill="#333336"/>
<path d="M1108.65 159.34L1148.79 159.28V156.95H1109.45L1108.65 159.34Z" fill="#525A5A"/>
<path d="M1148.79 159.28V170.71H1121.44L1121.19 159.28H1148.79Z" fill="#333336"/>
<path d="M965.81 232.58L1040 277.2C1041.98 278.39 1044.44 278.43 1046.47 277.31L1069.16 264.8C1070.52 264.05 1070.54 262.11 1069.21 261.32L993.65 216.42C991.83 215.35 989.57 215.34 987.74 216.4L965.84 229.12C964.52 229.89 964.51 231.78 965.82 232.57L965.81 232.58Z" fill="#3E8878"/>
<path d="M893.02 313.02L991.69 256.38C993.1 255.57 993.1 253.55 991.7 252.73L974.39 242.67C973.47 242.13 972.33 242.14 971.41 242.69L892.86 289.69C891.31 290.62 889.38 290.6 887.85 289.66L870.1 278.74C868.8 277.94 868.83 276.03 870.17 275.28L893.63 262.08C894.3 261.7 894.31 260.75 893.65 260.35L877.46 250.64C877.14 250.45 876.75 250.45 876.44 250.64L834.29 275.63C831.89 277.05 831.88 280.53 834.27 281.96L885.93 312.95C888.11 314.26 890.82 314.28 893.02 313.02V313.02Z" fill="url(#paint26_linear_910_54908)"/>
<path d="M1012.72 268.3C1013.36 267.93 1014.14 267.93 1014.78 268.3L1031.97 278.41C1032.98 279.05 1032.97 280.53 1031.95 281.15L976.02 315.02C974.97 315.66 974.99 317.19 976.06 317.8L1020.01 342.75C1021.08 343.36 1021.1 344.89 1020.05 345.53L1004.04 355.21C1002.31 356.26 1000.14 356.25 998.42 355.19L937.5 317.93C935.39 316.64 935.42 313.56 937.55 312.31L1012.74 268.31L1012.72 268.3Z" fill="url(#paint27_linear_910_54908)"/>
<path d="M906.2 258.21L925.85 246.41C926.32 246.12 926.94 246.28 927.22 246.76L935.87 261.29C936.49 262.33 936.12 263.81 935.08 264.44L929.54 267.75L929.52 260.19L927.63 261.31V268.89L909.85 279.53L909.79 270.38L907.85 271.78L907.61 280.87L899.16 285.88L906.2 258.21V258.21Z" fill="url(#paint28_linear_910_54908)"/>
<path d="M925.2 245.05L918.99 241.55C918.16 241.08 917.14 241.1 916.32 241.59L897.41 252.94L906.2 258.22L925.23 246.79C925.89 246.4 925.87 245.44 925.21 245.06L925.2 245.05Z" fill="url(#paint29_linear_910_54908)"/>
<path d="M887.69 289.78L868.31 277.65C867.63 277.22 867.21 276.48 867.21 275.67V248.86L886.08 258.34L887.69 289.77V289.78Z" fill="#5A6262"/>
<path d="M927.62 228.71C927.62 238.56 919.64 246.54 909.79 246.54C899.94 246.54 891.96 238.56 891.96 228.71C891.96 218.86 899.94 210.88 909.79 210.88C919.64 210.88 927.62 218.86 927.62 228.71V228.71Z" fill="url(#paint30_radial_910_54908)"/>
<path d="M878.39 274.87L884.41 271.35V261.82L886.09 260.56L886.24 286.8C886.26 289.77 889.49 291.59 892.04 290.07L899.15 285.89L906.36 257.57V248.96L908.25 247.87L908.41 256.77L915.49 252.59C916.67 251.9 917.06 250.38 916.37 249.2L907.12 233.3L885.48 245.47L870.46 274.41C872.18 276.41 875.44 276.41 878.38 274.87H878.39Z" fill="#757B7B"/>
<path d="M864.399 236.56L869.159 236.39L885.489 245.48L907.129 233.31L886.089 221.48L867.479 232.64C865.849 233.6 864.129 234.67 864.399 236.56Z" fill="url(#paint31_linear_910_54908)"/>
<path d="M903.32 212.71C903.32 222.56 895.34 230.54 885.49 230.54C875.64 230.54 867.66 222.56 867.66 212.71C867.66 202.86 875.64 194.88 885.49 194.88C895.34 194.88 903.32 202.86 903.32 212.71V212.71Z" fill="url(#paint32_radial_910_54908)"/>
<path d="M864.319 235.75L853.449 260.41C852.749 262 853.309 263.87 854.769 264.81L870.189 274.74C872.239 276.06 874.989 275.12 875.799 272.82L885.489 245.49L869.159 236.4L866.619 234.99C865.779 234.52 864.709 234.88 864.319 235.76V235.75Z" fill="#929797"/>
<path d="M1273.41 320.67C1273.41 324.35 1267.92 327.33 1261.15 327.33C1254.38 327.33 1248.89 324.35 1248.89 320.67C1248.89 316.99 1254.38 314.01 1261.15 314.01C1267.92 314.01 1273.41 316.99 1273.41 320.67Z" fill="#757B7B"/>
<path d="M1273.41 316.55C1273.41 320.23 1267.92 323.21 1261.15 323.21C1254.38 323.21 1248.89 320.23 1248.89 316.55C1248.89 312.87 1254.38 309.89 1261.15 309.89C1267.92 309.89 1273.41 312.87 1273.41 316.55Z" fill="#686F6F"/>
<path d="M1273.41 313.13C1273.41 316.81 1267.92 319.79 1261.15 319.79C1254.38 319.79 1248.89 316.81 1248.89 313.13C1248.89 309.45 1254.38 306.47 1261.15 306.47C1267.92 306.47 1273.41 309.45 1273.41 313.13Z" fill="#B3B7B7"/>
<path d="M1318.29 275.01L1264.56 244.07L1263.44 243.42C1261.83 242.49 1259.84 242.51 1258.25 243.45L1257.09 244.14L1200.95 277.48C1200 278.04 1198.83 278.04 1197.88 277.48L1181.84 267.82C1181.27 267.4 1181.34 266.8 1182.02 266.39L1216.82 245.62C1218.79 244.44 1218.76 241.58 1216.77 240.44L1191.52 225.99C1190.58 225.45 1189.42 225.46 1188.49 226.02L1154.66 246.32C1152.73 247.48 1152.72 250.27 1154.63 251.45L1169.93 260.85L1152.42 271.69C1150.51 272.87 1150.53 275.66 1152.46 276.81L1197.87 304.04C1198.82 304.61 1200.02 304.61 1200.97 304.04L1261.56 267.3L1283.11 279.16L1262.96 291.19L1282.86 303.13L1318.42 280.47C1320.45 279.18 1320.38 276.2 1318.3 275L1318.29 275.01Z" fill="#1BDBAD"/>
<path d="M1283.1 277.48L1281.62 278.36L1261.55 267.32L1200.96 304.05C1200 304.63 1198.81 304.63 1197.86 304.06L1152.44 276.83C1151.2 276.09 1150.75 274.66 1151.12 273.42C1151.31 274.1 1151.75 274.72 1152.44 275.13L1197.86 302.36C1198.81 302.94 1200 302.93 1200.96 302.36L1261.55 265.62L1283.1 277.48V277.48Z" fill="#34A188"/>
<path d="M1154.63 249.77L1171.37 259.97L1169.93 260.85L1154.63 251.47C1153.4 250.71 1152.96 249.29 1153.33 248.06C1153.52 248.74 1153.95 249.35 1154.63 249.77V249.77Z" fill="#34A188"/>
<path d="M1218.16 242.21C1218.52 243.45 1218.08 244.89 1216.82 245.64L1182.21 266.28C1182.21 266.28 1181.67 266.59 1181.58 266.91C1181.49 267.23 1181.65 267.63 1181.65 267.63C1179.91 266.24 1181.34 265.11 1182.02 264.7L1216.82 243.93C1217.52 243.52 1217.97 242.89 1218.16 242.2V242.21Z" fill="#34A188"/>
<path d="M1318.41 280.49L1282.84 303.15L1281.53 302.34L1318.41 278.8C1319.13 278.34 1319.57 277.67 1319.77 276.95C1320.12 278.22 1319.67 279.68 1318.41 280.49V280.49Z" fill="#34A188"/>
<path d="M1273.41 309C1273.41 312.68 1267.92 315.66 1261.15 315.66C1254.38 315.66 1248.89 312.68 1248.89 309C1248.89 305.32 1254.38 302.34 1261.15 302.34C1267.92 302.34 1273.41 305.32 1273.41 309Z" fill="#B2B6B6"/>
<path opacity="0.7" d="M1283.49 257.13C1283.49 272.55 1271.12 285.04 1255.86 285.04C1240.6 285.04 1228.23 272.54 1228.23 257.13C1228.23 241.72 1240.6 229.22 1255.86 229.22C1271.12 229.22 1283.49 241.72 1283.49 257.13Z" fill="url(#paint33_linear_910_54908)"/>
<path d="M1273.41 304.97C1273.41 308.65 1267.92 311.63 1261.15 311.63C1254.38 311.63 1248.89 308.65 1248.89 304.97C1248.89 301.29 1254.38 298.31 1261.15 298.31C1267.92 298.31 1273.41 301.29 1273.41 304.97Z" fill="#7C8282"/>
<path opacity="0.7" d="M1277.92 270.69C1277.92 275.28 1270.27 279 1260.84 279C1251.41 279 1243.76 275.28 1243.76 270.69C1243.76 266.1 1251.41 262.38 1260.84 262.38C1270.27 262.38 1277.92 266.1 1277.92 270.69Z" fill="url(#paint34_linear_910_54908)"/>
<path d="M1276.13 287.01C1276.13 291.42 1269.33 294.99 1260.95 294.99C1252.57 294.99 1245.77 291.42 1245.77 287.01C1245.77 282.6 1252.57 279.03 1260.95 279.03C1269.33 279.03 1276.13 282.6 1276.13 287.01Z" stroke="#B2B6B6" stroke-width="2" stroke-miterlimit="10"/>
<path d="M1281.85 270.69C1281.85 272.38 1280.48 273.75 1278.79 273.75C1277.1 273.75 1275.73 272.38 1275.73 270.69C1275.73 269 1277.1 267.63 1278.79 267.63C1280.48 267.63 1281.85 269 1281.85 270.69Z" fill="#B2B6B6"/>
<path opacity="0.7" d="M1285.98 244.59C1285.98 251.53 1280.35 257.16 1273.41 257.16C1266.47 257.16 1260.84 251.53 1260.84 244.59C1260.84 237.65 1266.47 232.02 1273.41 232.02C1280.35 232.02 1285.98 237.65 1285.98 244.59V244.59Z" fill="url(#paint35_linear_910_54908)"/>
<path d="M873.57 88.1598L905.95 106.84C907.8 107.91 910.079 107.91 911.939 106.84L947.109 86.5798C947.839 86.1598 948.209 85.4198 948.219 84.6898C948.219 83.9498 948.219 73.1998 948.219 73.1998L911.799 61.5698L872.379 74.7398C872.379 74.7398 872.409 85.2098 872.379 85.9798C872.349 86.8198 872.75 87.6698 873.58 88.1498L873.57 88.1598Z" fill="url(#paint36_linear_910_54908)"/>
<path d="M873.57 76.7499L905.95 95.4299C907.8 96.4999 910.08 96.4999 911.94 95.4299L947.11 75.1699C948.57 74.3299 948.59 72.2299 947.14 71.3599L911.79 50.1499L873.55 72.5899C871.96 73.5199 871.97 75.8299 873.57 76.7499V76.7499Z" fill="url(#paint37_linear_910_54908)"/>
<path d="M889.899 23.6798V86.1298L891.959 86.8098L930.389 61.0998L931.849 1.02982C930.909 -0.310183 929.039 -0.100183 928.309 0.319817L890.789 22.1398C890.239 22.4598 889.909 23.0398 889.909 23.6798H889.899Z" fill="#757B7B"/>
<path d="M891.96 24.3499V86.7999L932.2 62.1799V1.8399C932.2 0.989898 931.28 0.459898 930.54 0.889898L892.84 22.8199C892.29 23.1399 891.96 23.7199 891.96 24.3599V24.3499Z" fill="url(#paint38_linear_910_54908)"/>
<path d="M900.26 53.4299C899.74 53.4299 899.23 53.1599 898.96 52.6799C898.55 51.9599 898.8 51.0399 899.52 50.6299L924.48 36.3299C925.2 35.9199 926.11 36.1699 926.53 36.8899C926.94 37.6099 926.69 38.5299 925.97 38.9399L901.01 53.24C900.78 53.37 900.52 53.4399 900.27 53.4399L900.26 53.4299Z" fill="url(#paint39_linear_910_54908)"/>
<path d="M900.26 63.0698C899.74 63.0698 899.24 62.7998 898.96 62.3298C898.54 61.6198 898.78 60.6998 899.5 60.2798L924.46 45.6598C925.18 45.2398 926.09 45.4798 926.51 46.1998C926.93 46.9098 926.69 47.8298 925.97 48.2498L901.01 62.8698C900.77 63.0098 900.51 63.0798 900.25 63.0798L900.26 63.0698Z" fill="url(#paint40_linear_910_54908)"/>
<path d="M911.96 18.6501V36.6101L919.19 32.3601V28.8501L916.47 30.4401V28.4901L921.75 25.5201V22.7501L916.44 25.8401L916.41 19.7101L918.77 18.3501V14.3101L911.96 18.6501Z" fill="url(#paint41_linear_910_54908)"/>
<path d="M920.43 13.5696L920.46 17.5796L923.31 15.8796V17.8596L917.91 20.9296V23.1596L923.31 20.0396V26.5496L920.82 27.9496L920.78 31.4996L926.62 28.2096V9.84961L920.43 13.5696Z" fill="url(#paint42_linear_910_54908)"/>
<path d="M900.899 70.14V75.42L908.979 70.74V65.46L900.899 70.14Z" fill="url(#paint43_linear_910_54908)"/>
<path d="M911.51 63.93V69.2L919.6 64.52V59.25L911.51 63.93Z" fill="url(#paint44_linear_910_54908)"/>
<path d="M992.75 254.62C992.75 255.4 992.97 255.75 991.79 256.42C990.62 257.09 893.96 312.57 893.96 312.57C893.96 312.57 892.03 314.08 889.81 313.98C887.59 313.88 886.77 313.42 886.04 312.98C885.31 312.54 864.78 300.22 864.78 300.22L837.02 283.57L833.61 281.49C833.61 281.49 832.57 280.38 832.51 279.17L885.68 311.05C885.68 311.05 887.53 312.29 889.67 312.23C891.81 312.17 893.24 311.05 893.24 311.05C893.24 311.05 992.75 253.82 992.75 254.6V254.62Z" fill="#34A188"/>
<path d="M1095.9 265.34C1091.24 265.21 1087.98 262.46 1087.98 262.46V287.95C1087.98 287.95 1092.26 290.7 1095.9 290.71C1098.62 290.71 1101.8 289.11 1103.24 288.3V263.05C1100.87 264.27 1098.07 265.4 1095.9 265.34Z" fill="#3C8D7B"/>
<path d="M1046.3 191.04V215.47C1027.21 207.84 1014.97 196.04 1014.97 182.8V159.34C1014.97 172.19 1027.21 183.64 1046.3 191.04Z" fill="#33A389"/>
<path d="M1096.1 199.75V224.44C1077.29 224.29 1060.03 220.96 1046.3 215.47V191.04C1060.03 196.37 1077.29 199.6 1096.1 199.75Z" fill="#3C8D7B"/>
<path d="M1245.12 270.69C1245.12 272.38 1243.75 273.75 1242.06 273.75C1240.37 273.75 1239 272.38 1239 270.69C1239 269 1240.37 267.63 1242.06 267.63C1243.75 267.63 1245.12 269 1245.12 270.69Z" fill="#B2B6B6"/>
<path d="M1224.25 145.17L1202.25 132.23L1203.64 131.38L1225.74 144.29L1224.25 145.17Z" fill="#447A6F"/>
<path d="M1229.36 124.17L1207.37 111.23L1208.76 110.38L1230.85 123.29L1229.36 124.17Z" fill="#1BDBAD"/>
<path d="M1254.66 139.62L1232.66 126.67L1234.05 125.83L1256.15 138.73L1254.66 139.62Z" fill="url(#paint45_linear_910_54908)"/>
<path d="M1295.66 151.43L1282.66 143.48L1284.05 142.63L1297.15 150.54L1295.66 151.43Z" fill="url(#paint46_linear_910_54908)"/>
<path d="M1304.93 145.94L1291.94 138L1293.33 137.15L1306.42 145.06L1304.93 145.94Z" fill="#1BDBAD"/>
<path d="M1322.84 133.02L1309.84 125.07L1319.84 119L1333.23 126.84L1322.84 133.02Z" fill="#878D8D"/>
<path d="M1313.36 140.96L1300.36 133.02L1301.75 132.17L1314.85 140.08L1313.36 140.96Z" fill="#1BDBAD"/>
<path d="M1251.38 173.55L1171.52 124.99L1172.91 124.14L1253.16 172.45L1251.38 173.55Z" fill="url(#paint47_linear_910_54908)"/>
<path d="M1242.64 178.93L1162.92 129.97L1164.34 129.14L1244.41 177.84L1242.64 178.93Z" fill="#447A6F"/>
<path d="M1249.96 305.97C1249.5 305.97 1249.09 305.66 1248.99 305.19L1241.09 270.91C1241.03 270.64 1241.09 270.35 1241.24 270.12C1241.4 269.89 1241.65 269.74 1241.92 269.7L1244.31 269.36C1244.68 269.31 1245.04 269.46 1245.25 269.75L1247.44 272.71C1248.69 270.95 1249.69 269.03 1250.4 266.97C1250.54 266.57 1250.91 266.31 1251.32 266.3C1251.73 266.28 1252.12 266.54 1252.27 266.93L1253.36 269.7C1253.36 269.7 1253.41 269.63 1253.44 269.59C1254.45 268.18 1255.41 266.71 1256.28 265.21C1256.48 264.86 1256.88 264.66 1257.28 264.73C1257.68 264.79 1258.01 265.08 1258.11 265.48C1258.86 268.51 1260.51 271.29 1262.79 273.41C1263.92 271.2 1264.75 268.85 1265.26 266.41C1265.35 265.96 1265.74 265.63 1266.2 265.62C1266.65 265.58 1267.07 265.9 1267.2 266.35C1267.73 268.22 1268.51 269.99 1269.52 271.63C1269.93 270.58 1270.25 269.49 1270.48 268.38C1270.54 268.08 1270.73 267.83 1271.01 267.69C1271.28 267.55 1271.6 267.55 1271.88 267.67C1272.73 268.06 1273.16 268.83 1273.5 269.45C1273.6 269.64 1273.71 269.82 1273.82 269.99C1274.18 270.52 1275.12 270.99 1276.21 271.18C1277.29 271.37 1278.32 271.25 1278.84 270.88C1279.18 270.64 1279.63 270.63 1279.97 270.85C1280.32 271.08 1280.49 271.49 1280.4 271.89L1273.38 305.19C1273.27 305.73 1272.74 306.08 1272.2 305.96C1271.66 305.85 1271.31 305.32 1271.43 304.78L1278.09 273.21C1277.41 273.3 1276.66 273.28 1275.87 273.14C1274.22 272.85 1272.84 272.09 1272.17 271.1C1272.09 270.99 1272.02 270.87 1271.95 270.75C1271.6 271.91 1271.15 273.04 1270.61 274.13C1270.45 274.44 1270.15 274.65 1269.8 274.68C1269.45 274.71 1269.12 274.56 1268.91 274.28C1267.91 272.93 1267.07 271.48 1266.4 269.96C1265.78 271.87 1264.96 273.72 1263.97 275.48C1263.83 275.73 1263.58 275.91 1263.29 275.97C1263 276.03 1262.71 275.95 1262.48 275.77C1259.97 273.77 1258.02 271.1 1256.87 268.12C1256.3 269.02 1255.7 269.91 1255.08 270.77C1254.21 271.98 1253.36 272.02 1252.79 271.85C1251.96 271.59 1251.64 270.79 1251.51 270.45L1251.34 270.01C1250.51 271.8 1249.46 273.47 1248.22 275.02C1248.03 275.26 1247.73 275.41 1247.42 275.39C1247.11 275.39 1246.82 275.23 1246.64 274.99L1244.01 271.44L1243.28 271.54L1250.93 304.76C1251.05 305.3 1250.72 305.84 1250.18 305.96C1250.1 305.98 1250.03 305.99 1249.95 305.99L1249.96 305.97Z" fill="url(#paint48_linear_910_54908)"/>
<path d="M1032.68 279.16L974.72 314.33C974.72 314.33 973.51 315.1 974.04 316.07C974.57 317.05 976.15 317.83 976.15 317.83C976.15 317.83 974.57 316.56 975.53 315.98C976.49 315.41 1029.87 282.5 1029.87 282.5L1031.86 281.29C1031.86 281.29 1033.42 280.58 1032.68 279.14V279.16Z" fill="#34A188"/>
<path d="M937.399 312.38C937.399 312.38 934.379 314.67 939.609 317.83C944.839 320.99 995.459 351.34 995.459 351.34L993.769 352.35L937.479 317.92C937.479 317.92 935.969 316.97 935.919 315.24C935.869 313.52 937.399 312.38 937.399 312.38V312.38Z" fill="#34A188"/>
<path d="M974.659 315.67L936.689 314.96L936.319 314.41L936.579 313.76L975.089 314.33L974.659 315.67Z" fill="#34A188"/>
<path d="M979.169 311.63L958.759 299.88L960.179 299.05L980.609 310.76L979.169 311.63Z" fill="url(#paint49_linear_910_54908)"/>
<path d="M996.01 301.56L975.6 289.81L977.01 288.98L997.44 300.69L996.01 301.56Z" fill="url(#paint50_linear_910_54908)"/>
<path d="M1011.47 292.72L991.049 280.97L992.469 280.14L1012.9 291.85L1011.47 292.72Z" fill="#34A188"/>
<path d="M1026.72 283.69L1006.31 271.94L1007.73 271.11L1028.16 282.82L1026.72 283.69Z" fill="#34A188"/>
<path d="M977.369 318.54L958.099 328.93L957.689 329.54L959.039 330.37L959.549 329.8L978.589 319.23L977.369 318.54Z" fill="#496F68"/>
<path d="M975.86 339.72L975.6 340.27L976.61 340.78L977.22 340.4L995.83 329.03L994.35 328.19L975.86 339.72Z" fill="#34A188"/>
<path d="M993.709 350.29L994.359 350.91L995.379 351.42L995.989 351.05L1014.82 339.79L1013.29 338.92L993.709 350.29Z" fill="url(#paint51_linear_910_54908)"/>
<path d="M1013.54 387.21L1014.94 388.06L1074.89 350.39L1073.39 349.5L1013.54 387.21Z" fill="#B2B6B6"/>
<path d="M991.97 374.41L993.37 375.26L1053.32 337.59L1051.82 336.7L991.97 374.41Z" fill="url(#paint52_linear_910_54908)"/>
<path d="M996.94 427.37L1053.28 460.5C1055.82 461.99 1058.97 461.97 1061.48 460.44L1155.34 403.52C1157.28 402.34 1157.26 399.53 1155.31 398.37L1098.44 364.73C1096.87 363.8 1094.92 363.8 1093.35 364.73L996.93 422.19C994.97 423.36 994.98 426.2 996.94 427.35V427.37Z" fill="#9EA2A2"/>
<path d="M1155.35 403.52L1061.49 460.44C1058.98 461.97 1055.82 461.99 1053.29 460.5L996.94 427.37C995.48 426.51 995.1 424.71 995.82 423.36C996.06 423.82 996.44 424.23 996.94 424.53L1053.29 457.66C1055.82 459.15 1058.98 459.13 1061.49 457.6L1155.35 400.68C1155.83 400.39 1156.2 399.99 1156.43 399.54C1157.15 400.87 1156.79 402.65 1155.35 403.52V403.52Z" fill="#565E5E"/>
<path d="M1015.28 422.55L1052.08 444.58C1054.16 445.82 1056.75 445.83 1058.84 444.6L1134.39 400.03C1136.03 399.06 1136.01 396.68 1134.34 395.75L1096.43 374.45L1015.27 422.54L1015.28 422.55Z" fill="#747A7A"/>
<path d="M1018.15 378.6L1052.39 399.1C1054.28 400.23 1056.63 400.24 1058.52 399.12L1135.09 353.95C1136.42 353.17 1136.4 351.24 1135.05 350.48L1097.1 329.16C1096.48 328.81 1095.71 328.82 1095.09 329.19L1018.14 375.17C1016.84 375.95 1016.84 377.83 1018.14 378.6H1018.15Z" fill="url(#paint53_linear_910_54908)"/>
<path d="M1038.05 339.09L1052.08 347.53C1053.33 348.28 1054.9 348.29 1056.16 347.56L1113.24 314.23C1114.57 313.45 1114.56 311.53 1113.22 310.77L1097.1 301.58C1096.47 301.22 1095.7 301.23 1095.08 301.6L1038.04 335.67C1036.74 336.44 1036.74 338.32 1038.04 339.1L1038.05 339.09Z" fill="url(#paint54_linear_910_54908)"/>
<path d="M1054.11 351.05V384.58C1054.11 386.14 1055.81 387.1 1057.15 386.29L1114.31 351.66C1115.51 350.94 1116.24 349.64 1116.24 348.24V315.97C1116.24 314.43 1114.56 313.46 1113.23 314.24L1056.1 347.6C1054.87 348.32 1054.12 349.63 1054.12 351.05H1054.11Z" fill="#747A7A"/>
<path d="M1035.19 340.91V375.91C1035.19 376.62 1035.57 377.28 1036.18 377.64L1051.1 386.37C1052.43 387.15 1054.11 386.19 1054.11 384.64V351.01C1054.11 349.61 1053.37 348.31 1052.17 347.58L1038.22 339.19C1036.89 338.39 1035.19 339.35 1035.19 340.9V340.91Z" fill="#929797"/>
<path d="M1064.67 367.85V373.38C1064.67 374.15 1065.51 374.63 1066.18 374.24L1109.95 348.53C1110.78 348.05 1111.28 347.16 1111.28 346.2V340.44C1111.28 339.67 1110.44 339.18 1109.77 339.58L1066 365.51C1065.17 366 1064.67 366.89 1064.67 367.85Z" fill="#5A6262"/>
<path d="M1064.67 351.93V357.38C1064.67 358.15 1065.51 358.63 1066.18 358.24L1110.02 332.49C1110.8 332.03 1111.28 331.19 1111.28 330.28V324.44C1111.28 323.67 1110.44 323.18 1109.77 323.58L1066.07 349.47C1065.2 349.98 1064.67 350.92 1064.67 351.92V351.93Z" fill="#5A6262"/>
<path d="M1138.09 355.68V388L1055.45 436.44V404.33C1055.46 402.21 1056.58 400.26 1058.4 399.19L1135.07 353.96C1136.4 353.17 1138.09 354.13 1138.09 355.68Z" fill="#757B7B"/>
<path d="M1138.09 374V395.3C1138.09 396.88 1137.25 398.34 1135.89 399.15L1058.47 444.82C1057.13 445.61 1055.45 444.64 1055.45 443.1V422.44L1138.09 374Z" fill="#686F6F"/>
<path d="M1055.45 422.44V443.1C1055.43 444.63 1053.75 445.57 1052.42 444.79L1016.25 423.13C1015.65 422.77 1015.28 422.11 1015.28 421.41V398.82L1055.45 422.44Z" fill="#757B7B"/>
<path d="M1055.45 404.33V422.44L1015.28 398.82V380.4C1015.28 378.85 1016.97 377.89 1018.31 378.69L1052.53 399.18C1054.34 400.27 1055.45 402.22 1055.45 404.33Z" fill="#929797"/>
<path d="M1116.24 402.38V410.75L1085.18 429.07V420.77C1085.18 419.69 1085.75 418.68 1086.69 418.14L1114.89 401.61C1115.49 401.26 1116.24 401.69 1116.24 402.38Z" fill="#5A6262"/>
<path d="M988.03 250.6L938.37 279.25L932.68 275.85L890.81 300.31L868.66 288.18L874.07 285.1L849.54 270.61L857.05 266.27L856.14 265.68L847.17 270.93L871.45 285.23L866.12 288.24L890.81 302.22L932.55 277.55L938.46 281.15L989.3 251.34L988.03 250.6Z" fill="url(#paint55_linear_910_54908)"/>
<path d="M864.02 270.76L860.039 273.24L858.77 272.38L862.76 269.94L864.02 270.76Z" fill="#B2B6B6"/>
<path d="M862.02 286.04L863.19 285.31L843.109 273.24L841.729 274.06L862.02 286.04Z" fill="#B2B6B6"/>
<path d="M939.16 271.81L940.79 272.73L983.93 248.21L982.31 247.27L939.16 271.81Z" fill="url(#paint56_linear_910_54908)"/>
<path d="M893.86 134.14L870 121.08L875.41 117.99L850.88 103.51L862.42 96.83L861.49 96.23L848.51 103.83L872.78 118.13L867.46 121.13L892.15 135.12L893.86 134.14Z" fill="url(#paint57_linear_910_54908)"/>
<path d="M970.689 105.59L921.029 134.24L915.339 130.84L913.859 131.72L921.119 136.14L971.959 106.33L970.689 105.59Z" fill="url(#paint58_linear_910_54908)"/>
<path d="M1316.41 116.9L1266.75 145.55L1261.05 142.15L1259.58 143.03L1266.84 147.45L1317.68 117.64L1316.41 116.9Z" fill="#1BDBAD"/>
<path d="M863.359 118.93L864.519 118.21L844.439 106.14L843.069 106.96L863.359 118.93Z" fill="url(#paint59_linear_910_54908)"/>
<path d="M932.199 133.57L933.829 134.5L976.969 109.98L975.349 109.04L932.199 133.57Z" fill="url(#paint60_linear_910_54908)"/>
<path d="M950.819 102.12L952.489 103.03L963.819 96.9297L962.199 95.9897L950.819 102.12Z" fill="url(#paint61_linear_910_54908)"/>
<path d="M964.17 135.18L970.31 138.48L981.11 132.27L975.55 129.04L964.17 135.18Z" fill="url(#paint62_linear_910_54908)"/>
<path d="M1002.93 281.82L1009.07 285.11L1015.53 281.4L1009.77 278.13L1002.93 281.82Z" fill="url(#paint63_linear_910_54908)"/>
<path d="M954.38 135.69L975.62 123.29L977.26 124.29L955.96 136.59L954.38 135.69Z" fill="url(#paint64_linear_910_54908)"/>
<path d="M967.989 143.93L989.229 131.53L990.859 132.52L969.569 144.83L967.989 143.93Z" fill="url(#paint65_linear_910_54908)"/>
<path d="M976.609 153.73L997.859 141.33L999.489 142.33L978.189 154.63L976.609 153.73Z" fill="#1BDBAD"/>
<path d="M995.699 149.5L1016.95 137.1L1018.58 138.1L997.279 150.4L995.699 149.5Z" fill="#1BDBAD"/>
<path d="M1234.25 183.87V182L1258.51 167.43C1258.51 167.43 1259.55 166.98 1259.05 165.69C1259.05 165.69 1260.13 166.6 1259.74 167.68C1259.35 168.76 1259.08 168.8 1258.57 169.11C1258.09 169.41 1237.29 182.22 1234.97 183.66C1234.74 183.8 1234.25 183.87 1234.25 183.87V183.87Z" fill="#447A6F"/>
<path d="M1224.25 145.17L1234.79 138.91C1234.79 138.91 1235.79 138.23 1235.41 137.15L1223.17 144.54L1224.25 145.17V145.17Z" fill="#447A6F"/>
<path d="M895.079 207.55C895.079 210.67 892.549 213.2 889.429 213.2C886.309 213.2 883.779 210.67 883.779 207.55C883.779 204.43 886.309 201.9 889.429 201.9C892.549 201.9 895.079 204.43 895.079 207.55Z" fill="#1BDBAD"/>
<path opacity="0.8" d="M1063.68 326.96L1071.35 331.57C1072.03 331.98 1072.89 331.99 1073.58 331.58L1104.79 313.36C1105.52 312.94 1105.51 311.88 1104.79 311.47L1095.98 306.45C1095.64 306.25 1095.22 306.26 1094.88 306.46L1063.7 325.08C1062.99 325.5 1062.99 326.53 1063.7 326.96H1063.68Z" fill="url(#paint66_linear_910_54908)"/>
<path d="M1297.31 259.1C1297.31 264.1 1296.3 268.87 1294.48 273.22C1294.47 273.25 1294.46 273.27 1294.45 273.3C1291.48 281.18 1282.6 291.29 1278.33 297.59C1273.9 304.09 1273.41 309.09 1273.41 309.09C1273.41 312.77 1267.92 315.76 1261.15 315.76C1254.87 315.76 1249.68 313.18 1248.97 309.87C1248.97 309.87 1248.96 309.79 1248.93 309.64C1248.75 308.65 1247.8 304.46 1243.95 298.81C1239.61 292.41 1231.11 283.47 1228.28 275.55C1225.78 270.61 1224.37 265.02 1224.37 259.1C1224.37 238.96 1240.7 222.63 1260.84 222.63C1280.98 222.63 1297.31 238.96 1297.31 259.1V259.1Z" fill="url(#paint67_radial_910_54908)"/>
<path d="M1281.38 241.87C1281.38 244.99 1278.85 247.52 1275.73 247.52C1272.61 247.52 1270.08 244.99 1270.08 241.87C1270.08 238.75 1272.61 236.22 1275.73 236.22C1278.85 236.22 1281.38 238.75 1281.38 241.87Z" fill="#1BDBAD"/>
<path d="M1289.14 19.9C1289.14 23.02 1286.61 25.55 1283.49 25.55C1280.37 25.55 1277.84 23.02 1277.84 19.9C1277.84 16.78 1280.37 14.25 1283.49 14.25C1286.61 14.25 1289.14 16.78 1289.14 19.9Z" fill="#1BDBAD"/>
<path d="M1230.44 323.729L1225.35 320.719L1225.17 320.609L1212.18 328.209L1227.98 337.509L1229.41 336.659L1214.55 327.889L1224.69 322.019L1227.81 323.869L1222.49 326.869L1247.17 340.859L1248.89 339.879L1225.03 326.809L1230.44 323.729Z" fill="#1BDBAD"/>
<path d="M1260.59 355.049L1254.9 351.649L1253.42 352.529L1260.68 356.939L1311.52 327.129L1310.25 326.399L1260.59 355.049Z" fill="#1BDBAD"/>
<path d="M1161.14 271.429L1181.43 283.399L1182.59 282.669L1162.51 270.609L1161.14 271.429Z" fill="#34A188"/>
<path d="M1203.49 241.949L1185.27 230.979L1175.09 236.979L1193.76 247.719L1203.49 241.949Z" fill="url(#paint68_linear_910_54908)"/>
<path d="M1177.28 256.519L1157.54 244.589L1156.37 245.299L1176.03 257.279L1177.28 256.519Z" fill="#34A188"/>
<path d="M1181.83 253.8L1162.09 241.87L1160.92 242.58L1180.58 254.56L1181.83 253.8Z" fill="#34A188"/>
<path d="M1229.87 281.35L1229.61 281.18L1230.67 280.54L1230.1 279.52L1204.47 294.88L1188.07 285.54L1193.48 282.46L1169.44 268.27L1211.14 243.19L1212.39 242.44L1188.7 228.56L1187.49 229.22L1209.82 242.41L1193.76 252.02L1170.83 238.6L1169.62 239.25L1192.51 252.77L1166.58 268.29L1190.85 282.6L1185.53 285.6L1203.22 295.62L1204.4 296.29L1205.67 295.56L1205.66 295.55L1229.87 281.35Z" fill="#34A188"/>
<path d="M1307.21 281.68L1305.98 280.87L1281.17 296.36L1282.35 297.02L1307.21 281.68Z" fill="#34A188"/>
<path d="M1229.22 319.299L1248.36 307.489L1247.92 306.229L1228.04 318.639L1229.22 319.299Z" fill="#1BDBAD"/>
<path d="M1196.91 287.97L1222.38 273.03L1221.15 272.22L1195.73 287.3L1196.91 287.97Z" fill="#34A188"/>
<path d="M1308.9 279L1310.22 279.69L1314.79 276.73L1296.73 265.62L1296.54 266.58L1312.72 276.65L1308.9 279Z" fill="#34A188"/>
<path d="M1307.21 276.56L1297.22 270.5L1296.24 271.24L1306.09 277.27L1307.21 276.56Z" fill="#34A188"/>
<path d="M1220.5 341.97L1239.56 353.4L1239.61 363.23L1220.5 351.77V341.97Z" fill="#5A6262"/>
<path d="M922.109 100.99V121.13L938.639 111.61L938.669 91.4399L922.109 100.99Z" fill="#DDDFDF"/>
<path d="M938.64 111.61L936.09 110.37V92.9299L938.67 91.4399L938.64 111.61Z" fill="#747A7A"/>
<path d="M936.089 110.37L922.109 118.52V100.99L936.089 92.9297V110.37Z" fill="#5A6262"/>
<path d="M1110.51 117.28C1110.51 125.36 1103.96 131.9 1095.89 131.9C1087.82 131.9 1081.27 125.35 1081.27 117.28C1081.27 109.21 1087.82 102.66 1095.89 102.66C1103.96 102.66 1110.51 109.21 1110.51 117.28Z" fill="#525A5A"/>
<path d="M1110.51 119.36C1110.51 127.44 1103.96 133.98 1095.89 133.98C1087.82 133.98 1081.27 127.43 1081.27 119.36C1081.27 111.29 1087.82 104.74 1095.89 104.74C1103.96 104.74 1110.51 111.29 1110.51 119.36V119.36Z" fill="#1BDBAD"/>
<path d="M1111.22 215.13C1111.22 222.44 1104.67 228.37 1096.6 228.37C1088.53 228.37 1081.98 222.44 1081.98 215.13C1081.98 207.82 1088.53 201.89 1096.6 201.89C1104.67 201.89 1111.22 207.82 1111.22 215.13Z" fill="#2DB091"/>
<path d="M1111.22 220.13C1111.22 227.44 1104.67 233.37 1096.6 233.37C1088.53 233.37 1081.98 227.44 1081.98 220.13C1081.98 212.82 1088.53 206.89 1096.6 206.89C1104.67 206.89 1111.22 212.82 1111.22 220.13Z" fill="#447A6F"/>
<path opacity="0.3" d="M1636.65 548.63L1337.27 369" stroke="url(#paint69_linear_910_54908)" stroke-miterlimit="10"/>
</g>
<defs>
<linearGradient id="paint0_linear_910_54908" x1="831.37" y1="246.35" x2="1344.72" y2="246.35" gradientUnits="userSpaceOnUse">
<stop stop-color="#727E7D"/>
<stop offset="0.5" stop-color="#1BDBAD"/>
<stop offset="1" stop-color="#757B7B"/>
</linearGradient>
<linearGradient id="paint1_linear_910_54908" x1="1221.5" y1="134.76" x2="1636.9" y2="134.76" gradientUnits="userSpaceOnUse">
<stop stop-color="#727E7D"/>
<stop offset="1" stop-color="#434547" stop-opacity="0.7"/>
</linearGradient>
<linearGradient id="paint2_linear_910_54908" x1="864.64" y1="507.41" x2="1026.42" y2="507.41" gradientUnits="userSpaceOnUse">
<stop stop-color="#434547" stop-opacity="0.7"/>
<stop offset="0.69" stop-color="#757B7B"/>
<stop offset="1" stop-color="#30C5A2"/>
</linearGradient>
<linearGradient id="paint3_linear_910_54908" x1="-3.90616e-05" y1="351.71" x2="867.62" y2="351.71" gradientUnits="userSpaceOnUse">
<stop stop-color="#434547" stop-opacity="0.7"/>
<stop offset="1" stop-color="#757B7B"/>
</linearGradient>
<linearGradient id="paint4_linear_910_54908" x1="875.72" y1="130.14" x2="1049.36" y2="130.14" gradientUnits="userSpaceOnUse">
<stop stop-color="#525A5A"/>
<stop offset="1" stop-color="#434346" stop-opacity="0"/>
</linearGradient>
<linearGradient id="paint5_linear_910_54908" x1="889.8" y1="305.87" x2="1070.09" y2="305.87" gradientUnits="userSpaceOnUse">
<stop stop-color="#525A5A"/>
<stop offset="1" stop-color="#434346" stop-opacity="0"/>
</linearGradient>
<linearGradient id="paint6_linear_910_54908" x1="1055.15" y1="419.88" x2="1266.15" y2="419.88" gradientUnits="userSpaceOnUse">
<stop stop-color="#525A5A"/>
<stop offset="1" stop-color="#434346" stop-opacity="0"/>
</linearGradient>
<linearGradient id="paint7_linear_910_54908" x1="1095.9" y1="314.14" x2="1446.15" y2="314.14" gradientUnits="userSpaceOnUse">
<stop stop-color="#525A5A"/>
<stop offset="1" stop-color="#434346" stop-opacity="0"/>
</linearGradient>
<linearGradient id="paint8_linear_910_54908" x1="1273.66" y1="129.31" x2="1429.69" y2="129.31" gradientUnits="userSpaceOnUse">
<stop stop-color="#525A5A"/>
<stop offset="1" stop-color="#434346" stop-opacity="0"/>
</linearGradient>
<linearGradient id="paint9_linear_910_54908" x1="954.43" y1="149.21" x2="875.11" y2="74.9998" gradientUnits="userSpaceOnUse">
<stop stop-color="#1BDBAD"/>
<stop offset="1" stop-color="#5A6262"/>
</linearGradient>
<linearGradient id="paint10_linear_910_54908" x1="1195.5" y1="165.29" x2="1262.9" y2="122.4" gradientUnits="userSpaceOnUse">
<stop stop-color="#1BDBAD"/>
<stop offset="1" stop-color="#757B7B"/>
</linearGradient>
<linearGradient id="paint11_linear_910_54908" x1="1231.09" y1="68.6899" x2="1315.81" y2="68.6899" gradientUnits="userSpaceOnUse">
<stop stop-color="#1BDBAD"/>
<stop offset="1" stop-color="#757B7B"/>
</linearGradient>
<radialGradient id="paint12_radial_910_54908" cx="0" cy="0" r="1" gradientUnits="userSpaceOnUse" gradientTransform="translate(1278.64 27.1097) scale(49.99 49.99)">
<stop stop-color="#1BDBAD"/>
<stop offset="0.88" stop-color="#757B7B"/>
<stop offset="0.99" stop-color="white" stop-opacity="0.5"/>
</radialGradient>
<radialGradient id="paint13_radial_910_54908" cx="0" cy="0" r="1" gradientUnits="userSpaceOnUse" gradientTransform="translate(1280.55 22.9597) scale(59.11 59.11)">
<stop stop-color="#1BDBAD"/>
<stop offset="1" stop-color="#757B7B" stop-opacity="0"/>
</radialGradient>
<linearGradient id="paint14_linear_910_54908" x1="1223.17" y1="103.47" x2="1278.79" y2="103.47" gradientUnits="userSpaceOnUse">
<stop stop-color="#1BDBAD"/>
<stop offset="1" stop-color="#757B7B"/>
</linearGradient>
<linearGradient id="paint15_linear_910_54908" x1="1223.12" y1="178.44" x2="1248.31" y2="202.95" gradientUnits="userSpaceOnUse">
<stop stop-color="#1BDBAD"/>
<stop offset="1" stop-color="#757B7B"/>
</linearGradient>
<linearGradient id="paint16_linear_910_54908" x1="1154.94" y1="157.84" x2="1259.79" y2="157.84" gradientUnits="userSpaceOnUse">
<stop stop-color="#1BDBAD"/>
<stop offset="1" stop-color="#757B7B"/>
</linearGradient>
<linearGradient id="paint17_linear_910_54908" x1="963.409" y1="128.55" x2="997.449" y2="148.64" gradientUnits="userSpaceOnUse">
<stop stop-color="#1BDBAD"/>
<stop offset="1" stop-color="#757B7B"/>
</linearGradient>
<linearGradient id="paint18_linear_910_54908" x1="1154.94" y1="152.04" x2="1259.79" y2="152.04" gradientUnits="userSpaceOnUse">
<stop stop-color="#1BDBAD"/>
<stop offset="1" stop-color="#5A6262"/>
</linearGradient>
<linearGradient id="paint19_linear_910_54908" x1="1025.76" y1="162.95" x2="1169.19" y2="162.95" gradientUnits="userSpaceOnUse">
<stop stop-color="#1BDBAD"/>
<stop offset="1" stop-color="white"/>
</linearGradient>
<linearGradient id="paint20_linear_910_54908" x1="1015.02" y1="75.5096" x2="1180.04" y2="75.5096" gradientUnits="userSpaceOnUse">
<stop stop-color="#1BDBAD"/>
<stop offset="1" stop-color="#757B7B"/>
</linearGradient>
<linearGradient id="paint21_linear_910_54908" x1="983.74" y1="296.07" x2="1027.15" y2="358.88" gradientUnits="userSpaceOnUse">
<stop stop-color="#1BDBAD"/>
<stop offset="1" stop-color="#757B7B"/>
</linearGradient>
<linearGradient id="paint22_linear_910_54908" x1="1075.75" y1="132.95" x2="902.14" y2="99.7497" gradientUnits="userSpaceOnUse">
<stop stop-color="#1BDBAD"/>
<stop offset="1" stop-color="#757B7B"/>
</linearGradient>
<linearGradient id="paint23_linear_910_54908" x1="966.94" y1="202.159" x2="1004.98" y2="174.329" gradientUnits="userSpaceOnUse">
<stop stop-color="#1BDBAD"/>
<stop offset="1" stop-color="white"/>
</linearGradient>
<linearGradient id="paint24_linear_910_54908" x1="1070.03" y1="305.14" x2="1093.52" y2="242.33" gradientUnits="userSpaceOnUse">
<stop stop-color="#1BDBAD"/>
<stop offset="1" stop-color="white"/>
</linearGradient>
<linearGradient id="paint25_linear_910_54908" x1="1143.22" y1="231.979" x2="1195.48" y2="186.529" gradientUnits="userSpaceOnUse">
<stop stop-color="#1BDBAD"/>
<stop offset="1" stop-color="white"/>
</linearGradient>
<linearGradient id="paint26_linear_910_54908" x1="972.7" y1="260.17" x2="871.59" y2="285.19" gradientUnits="userSpaceOnUse">
<stop stop-color="#1BDBAD"/>
<stop offset="1" stop-color="#757B7B"/>
</linearGradient>
<linearGradient id="paint27_linear_910_54908" x1="983.7" y1="287.33" x2="988.8" y2="371.07" gradientUnits="userSpaceOnUse">
<stop stop-color="#1BDBAD"/>
<stop offset="1" stop-color="#757B7B"/>
</linearGradient>
<linearGradient id="paint28_linear_910_54908" x1="996.75" y1="212.3" x2="899.22" y2="275.11" gradientUnits="userSpaceOnUse">
<stop stop-color="#1BDBAD"/>
<stop offset="1" stop-color="#757B7B"/>
</linearGradient>
<linearGradient id="paint29_linear_910_54908" x1="953.41" y1="248.58" x2="901.86" y2="249.98" gradientUnits="userSpaceOnUse">
<stop stop-color="#1BDBAD"/>
<stop offset="1" stop-color="#757B7B"/>
</linearGradient>
<radialGradient id="paint30_radial_910_54908" cx="0" cy="0" r="1" gradientUnits="userSpaceOnUse" gradientTransform="translate(920.38 215.37) scale(25.73 25.73)">
<stop stop-color="#1BDBAD"/>
<stop offset="1" stop-color="#525A5A"/>
</radialGradient>
<linearGradient id="paint31_linear_910_54908" x1="803.459" y1="233.48" x2="901.169" y2="233.48" gradientUnits="userSpaceOnUse">
<stop stop-color="#1BDBAD"/>
<stop offset="1" stop-color="#757B7B"/>
</linearGradient>
<radialGradient id="paint32_radial_910_54908" cx="0" cy="0" r="1" gradientUnits="userSpaceOnUse" gradientTransform="translate(887.19 200.56) scale(33.74 33.74)">
<stop stop-color="#1BDBAD"/>
<stop offset="0.81" stop-color="#757B7B"/>
<stop offset="0.99" stop-color="white" stop-opacity="0.5"/>
</radialGradient>
<linearGradient id="paint33_linear_910_54908" x1="1228.23" y1="257.14" x2="1283.49" y2="257.14" gradientUnits="userSpaceOnUse">
<stop stop-color="#DFE0E0"/>
<stop offset="1" stop-color="#ABAEAE"/>
</linearGradient>
<linearGradient id="paint34_linear_910_54908" x1="1243.76" y1="270.69" x2="1277.92" y2="270.69" gradientUnits="userSpaceOnUse">
<stop stop-color="white"/>
<stop offset="1" stop-color="#DFE0E0"/>
</linearGradient>
<linearGradient id="paint35_linear_910_54908" x1="1260.84" y1="244.59" x2="1285.98" y2="244.59" gradientUnits="userSpaceOnUse">
<stop stop-color="white"/>
<stop offset="1" stop-color="#DFE0E0"/>
</linearGradient>
<linearGradient id="paint36_linear_910_54908" x1="897.889" y1="84.6098" x2="973.739" y2="84.6098" gradientUnits="userSpaceOnUse">
<stop stop-color="#A6AAAA"/>
<stop offset="1" stop-color="#757B7B"/>
</linearGradient>
<linearGradient id="paint37_linear_910_54908" x1="867.02" y1="71.9499" x2="973.49" y2="75.0199" gradientUnits="userSpaceOnUse">
<stop stop-color="#1BDBAD"/>
<stop offset="1" stop-color="#757B7B"/>
</linearGradient>
<linearGradient id="paint38_linear_910_54908" x1="887.97" y1="225.12" x2="916.06" y2="13.1999" gradientUnits="userSpaceOnUse">
<stop stop-color="#1BDBAD"/>
<stop offset="1" stop-color="#A6AAAA"/>
</linearGradient>
<linearGradient id="paint39_linear_910_54908" x1="910.72" y1="85.6799" x2="912.76" y2="44.3199" gradientUnits="userSpaceOnUse">
<stop stop-color="#1BDBAD"/>
<stop offset="1" stop-color="#757B7B"/>
</linearGradient>
<linearGradient id="paint40_linear_910_54908" x1="911.18" y1="85.6998" x2="913.23" y2="44.3398" gradientUnits="userSpaceOnUse">
<stop stop-color="#1BDBAD"/>
<stop offset="1" stop-color="#757B7B"/>
</linearGradient>
<linearGradient id="paint41_linear_910_54908" x1="898.2" y1="156.36" x2="928.84" y2="-64.2299" gradientUnits="userSpaceOnUse">
<stop stop-color="#1BDBAD"/>
<stop offset="1" stop-color="#757B7B"/>
</linearGradient>
<linearGradient id="paint42_linear_910_54908" x1="903.85" y1="157.15" x2="934.49" y2="-63.4504" gradientUnits="userSpaceOnUse">
<stop stop-color="#1BDBAD"/>
<stop offset="1" stop-color="#757B7B"/>
</linearGradient>
<linearGradient id="paint43_linear_910_54908" x1="904.199" y1="85.36" x2="906.239" y2="43.99" gradientUnits="userSpaceOnUse">
<stop stop-color="#1BDBAD"/>
<stop offset="1" stop-color="#757B7B"/>
</linearGradient>
<linearGradient id="paint44_linear_910_54908" x1="914.49" y1="85.86" x2="916.53" y2="44.5" gradientUnits="userSpaceOnUse">
<stop stop-color="#1BDBAD"/>
<stop offset="1" stop-color="#757B7B"/>
</linearGradient>
<linearGradient id="paint45_linear_910_54908" x1="1232.66" y1="132.72" x2="1256.15" y2="132.72" gradientUnits="userSpaceOnUse">
<stop stop-color="#1BDBAD"/>
<stop offset="1" stop-color="white"/>
</linearGradient>
<linearGradient id="paint46_linear_910_54908" x1="1282.66" y1="147.03" x2="1297.15" y2="147.03" gradientUnits="userSpaceOnUse">
<stop stop-color="#1BDBAD"/>
<stop offset="1" stop-color="white"/>
</linearGradient>
<linearGradient id="paint47_linear_910_54908" x1="1171.52" y1="148.85" x2="1253.16" y2="148.85" gradientUnits="userSpaceOnUse">
<stop stop-color="#1BDBAD"/>
<stop offset="1" stop-color="white"/>
</linearGradient>
<linearGradient id="paint48_linear_910_54908" x1="1261.91" y1="302.06" x2="1260.88" y2="274.56" gradientUnits="userSpaceOnUse">
<stop stop-color="#7C8282"/>
<stop offset="0.94" stop-color="#B2B6B6"/>
</linearGradient>
<linearGradient id="paint49_linear_910_54908" x1="958.759" y1="305.34" x2="980.609" y2="305.34" gradientUnits="userSpaceOnUse">
<stop stop-color="#D5D7D7"/>
<stop offset="1" stop-color="white"/>
</linearGradient>
<linearGradient id="paint50_linear_910_54908" x1="975.6" y1="295.27" x2="997.44" y2="295.27" gradientUnits="userSpaceOnUse">
<stop stop-color="#D5D7D7"/>
<stop offset="1" stop-color="white"/>
</linearGradient>
<linearGradient id="paint51_linear_910_54908" x1="993.709" y1="345.17" x2="1014.82" y2="345.17" gradientUnits="userSpaceOnUse">
<stop stop-color="#D5D7D7"/>
<stop offset="1" stop-color="white"/>
</linearGradient>
<linearGradient id="paint52_linear_910_54908" x1="991.97" y1="355.98" x2="1053.32" y2="355.98" gradientUnits="userSpaceOnUse">
<stop stop-color="#D5D7D7"/>
<stop offset="1" stop-color="white"/>
</linearGradient>
<linearGradient id="paint53_linear_910_54908" x1="1086.7" y1="425.89" x2="1061.42" y2="271.93" gradientUnits="userSpaceOnUse">
<stop stop-color="#A6AAAA"/>
<stop offset="1" stop-color="#757B7B"/>
</linearGradient>
<linearGradient id="paint54_linear_910_54908" x1="991.069" y1="265.73" x2="1136.6" y2="367.6" gradientUnits="userSpaceOnUse">
<stop stop-color="#A6AAAA"/>
<stop offset="1" stop-color="#757B7B"/>
</linearGradient>
<linearGradient id="paint55_linear_910_54908" x1="879.92" y1="281.62" x2="964.68" y2="250.99" gradientUnits="userSpaceOnUse">
<stop stop-color="#D5D7D7"/>
<stop offset="1" stop-color="white"/>
</linearGradient>
<linearGradient id="paint56_linear_910_54908" x1="882.44" y1="288.6" x2="967.2" y2="257.96" gradientUnits="userSpaceOnUse">
<stop stop-color="#D5D7D7"/>
<stop offset="1" stop-color="white"/>
</linearGradient>
<linearGradient id="paint57_linear_910_54908" x1="866.77" y1="110.16" x2="954.26" y2="166.67" gradientUnits="userSpaceOnUse">
<stop stop-color="#D5D7D7"/>
<stop offset="1" stop-color="white"/>
</linearGradient>
<linearGradient id="paint58_linear_910_54908" x1="885.139" y1="81.7098" x2="972.629" y2="138.22" gradientUnits="userSpaceOnUse">
<stop stop-color="#D5D7D7"/>
<stop offset="1" stop-color="white"/>
</linearGradient>
<linearGradient id="paint59_linear_910_54908" x1="861.849" y1="117.78" x2="949.329" y2="174.29" gradientUnits="userSpaceOnUse">
<stop stop-color="#D5D7D7"/>
<stop offset="1" stop-color="white"/>
</linearGradient>
<linearGradient id="paint60_linear_910_54908" x1="887.329" y1="78.33" x2="974.809" y2="134.85" gradientUnits="userSpaceOnUse">
<stop stop-color="#D5D7D7"/>
<stop offset="1" stop-color="white"/>
</linearGradient>
<linearGradient id="paint61_linear_910_54908" x1="898.269" y1="61.3897" x2="985.759" y2="117.9" gradientUnits="userSpaceOnUse">
<stop stop-color="#D5D7D7"/>
<stop offset="1" stop-color="white"/>
</linearGradient>
<linearGradient id="paint62_linear_910_54908" x1="947.98" y1="190.58" x2="972.49" y2="134.07" gradientUnits="userSpaceOnUse">
<stop stop-color="#1BDBAD"/>
<stop offset="1" stop-color="white"/>
</linearGradient>
<linearGradient id="paint63_linear_910_54908" x1="993.87" y1="317.02" x2="1009.14" y2="281.81" gradientUnits="userSpaceOnUse">
<stop stop-color="#1BDBAD"/>
<stop offset="1" stop-color="white"/>
</linearGradient>
<linearGradient id="paint64_linear_910_54908" x1="886.89" y1="79.0101" x2="974.38" y2="135.52" gradientUnits="userSpaceOnUse">
<stop stop-color="#D5D7D7"/>
<stop offset="1" stop-color="white"/>
</linearGradient>
<linearGradient id="paint65_linear_910_54908" x1="887.139" y1="78.6198" x2="974.629" y2="135.13" gradientUnits="userSpaceOnUse">
<stop stop-color="#D5D7D7"/>
<stop offset="1" stop-color="white"/>
</linearGradient>
<linearGradient id="paint66_linear_910_54908" x1="1060.1" y1="379.8" x2="1113.21" y2="246.52" gradientUnits="userSpaceOnUse">
<stop stop-color="#D5D7D7"/>
<stop offset="1" stop-color="white"/>
</linearGradient>
<radialGradient id="paint67_radial_910_54908" cx="0" cy="0" r="1" gradientUnits="userSpaceOnUse" gradientTransform="translate(1271.7 236.31) scale(81.9601 81.96)">
<stop stop-color="#1BDBAD"/>
<stop offset="0.53" stop-color="#757B7B" stop-opacity="0.5"/>
<stop offset="1" stop-color="#E1FAF4"/>
</radialGradient>
<linearGradient id="paint68_linear_910_54908" x1="1185.4" y1="326.5" x2="1189.99" y2="223.859" gradientUnits="userSpaceOnUse">
<stop stop-color="#1BDBAD"/>
<stop offset="1" stop-color="white"/>
</linearGradient>
<linearGradient id="paint69_linear_910_54908" x1="1337.01" y1="458.81" x2="1636.91" y2="458.81" gradientUnits="userSpaceOnUse">
<stop stop-color="#727E7D"/>
<stop offset="1" stop-color="#434547" stop-opacity="0.7"/>
</linearGradient>
<clipPath id="clip0_910_54908">
<rect width="1636.91" height="554.83" fill="white"/>
</clipPath>
</defs>
</svg>
