<svg width="345" height="87" viewBox="0 0 345 87" fill="none" xmlns="http://www.w3.org/2000/svg">
<path d="M90.9707 61.5195C89.8707 61.5195 89.0107 61.2495 88.4007 60.7195C87.8307 60.1495 87.5407 59.3095 87.5407 58.2095V28.9695C87.5407 28.4195 87.1007 27.9795 86.5507 27.9795H81.4607C80.9107 27.9795 80.4707 28.4195 80.4707 28.9695V59.5795C80.4707 61.8595 81.1407 63.7395 82.4707 65.2295C83.8407 66.7095 85.9707 67.4595 88.8607 67.4595C91.6007 67.4595 94.3607 67.4195 97.1307 67.3495C99.5907 67.3195 101.971 67.2095 104.261 67.0295C104.801 66.9895 105.201 66.5095 105.171 65.9695L104.951 62.4595C104.921 61.9395 104.481 61.5295 103.961 61.5295H90.9707V61.5195Z" fill="#333336"/>
<path d="M120.541 62.1494C119.401 62.1494 118.521 61.8794 117.921 61.3494C117.311 60.7794 117.011 59.9594 117.011 58.8994L117.071 28.3994C117.071 27.8494 116.631 27.3994 116.081 27.3994H111.171C110.621 27.3994 110.181 27.8394 110.181 28.3894V60.6094C110.181 62.9694 110.861 64.7694 112.231 66.0294C113.601 67.2794 115.441 67.9094 117.761 67.9094C118.331 67.9094 119.001 67.8694 119.761 67.7994C120.561 67.7594 121.321 67.6694 122.041 67.5094C122.381 67.4394 122.681 67.3694 122.951 67.2994C123.441 67.1594 123.761 66.6794 123.671 66.1794L123.141 62.9894C123.061 62.5094 122.651 62.1594 122.161 62.1594H120.551L120.541 62.1494Z" fill="#333336"/>
<path d="M147.831 39.5594C146.311 38.9494 144.431 38.6494 142.181 38.6494C140.811 38.6494 139.271 38.7094 137.561 38.8194C135.851 38.9294 134.161 39.0894 132.481 39.2794C131.181 39.4294 129.991 39.5994 128.901 39.7894C128.381 39.8794 128.031 40.3694 128.101 40.8994L128.481 43.7694C128.551 44.2894 129.021 44.6694 129.551 44.6194C131.441 44.4694 133.311 44.3394 135.171 44.2394C137.381 44.1294 139.201 44.0694 140.651 44.0694C142.591 44.0694 143.901 44.4094 144.591 45.0994C145.271 45.7494 145.621 46.8094 145.621 48.2894V49.1194C145.621 49.6694 145.181 50.1094 144.631 50.1094H134.841C132.291 50.1094 130.281 50.7394 128.791 51.9894C127.341 53.2094 126.621 54.9194 126.621 57.1194V60.0894C126.621 61.7994 127.001 63.2494 127.761 64.4294C128.521 65.5694 129.571 66.4494 130.901 67.0494C132.231 67.6194 133.731 67.9094 135.411 67.9094C137.091 67.9094 138.531 67.6594 139.861 67.1694C141.231 66.6794 142.431 66.0494 143.451 65.2894C144.521 64.5294 145.411 63.7694 146.131 63.0094C146.211 62.9194 146.281 62.8294 146.361 62.7494L146.961 66.5094C147.041 66.9894 147.451 67.3494 147.941 67.3494H151.581C152.131 67.3494 152.571 66.9094 152.571 66.3594V48.3594C152.571 45.8894 152.171 43.9494 151.371 42.5394C150.571 41.1294 149.391 40.1394 147.831 39.5694V39.5594ZM140.701 62.0394C139.441 62.4594 138.301 62.6694 137.281 62.6694C135.991 62.6694 135.041 62.3794 134.431 61.8094C133.821 61.1994 133.521 60.3294 133.521 59.1894V57.6494C133.521 56.6594 133.771 55.8794 134.261 55.3094C134.751 54.7394 135.571 54.4394 136.711 54.3994H144.621C145.171 54.3994 145.611 54.8394 145.611 55.3894V58.8694C145.611 59.1794 145.461 59.4794 145.211 59.6694C144.961 59.8594 144.681 60.0494 144.411 60.2194C143.191 61.0194 141.961 61.6294 140.701 62.0494V62.0394Z" fill="#333336"/>
<path d="M194.991 38.6394C192.971 38.6394 191.051 39.0794 189.231 39.9494C187.971 40.5694 186.671 41.4194 185.341 42.4894C184.831 42.8994 184.101 42.6994 183.811 42.1094C183.521 41.5194 183.161 41.0094 182.721 40.5694C181.431 39.2794 179.561 38.6294 177.131 38.6294C175.111 38.6294 173.191 39.0694 171.371 39.9394C170.111 40.5394 168.831 41.3794 167.531 42.4194C166.921 42.9094 166.021 42.5494 165.921 41.7794L165.721 40.1794C165.661 39.6794 165.241 39.3094 164.731 39.3094H161.071C160.521 39.3094 160.081 39.7494 160.081 40.2994V66.3194C160.081 66.8694 160.521 67.3094 161.071 67.3094H165.991C166.541 67.3094 166.981 66.8694 166.981 66.3194V48.0994C166.981 47.7594 167.161 47.4394 167.441 47.2594C168.271 46.7294 168.991 46.2794 169.611 45.9194C170.521 45.3894 171.361 45.0094 172.121 44.7794C172.881 44.5494 173.641 44.4394 174.401 44.4394C175.621 44.4394 176.531 44.7394 177.141 45.3494C177.751 45.9194 178.051 46.9494 178.051 48.4294V66.3194C178.051 66.8694 178.491 67.3094 179.041 67.3094H183.671C184.221 67.3094 184.661 66.8694 184.661 66.3194V48.1994C184.661 47.8694 184.831 47.5494 185.111 47.3594C185.951 46.8094 186.691 46.3394 187.341 45.9694C188.251 45.4394 189.071 45.0594 189.791 44.8294C190.551 44.5594 191.331 44.4294 192.131 44.4294C193.461 44.4294 194.391 44.7494 194.931 45.3994C195.461 46.0094 195.751 47.0194 195.781 48.4194V66.3094C195.781 66.8594 196.221 67.2994 196.771 67.2994H201.631C202.181 67.2994 202.621 66.8594 202.621 66.3094V46.3094C202.621 43.7994 201.961 41.8994 200.621 40.6094C199.331 39.2794 197.441 38.6094 194.971 38.6094L194.991 38.6394Z" fill="#333336"/>
<path d="M233.49 42.5194C232.69 41.1094 231.51 40.1194 229.95 39.5494C228.43 38.9394 226.55 38.6394 224.3 38.6394C222.93 38.6394 221.39 38.6994 219.68 38.8094C217.97 38.9194 216.28 39.0794 214.6 39.2694C213.3 39.4194 212.11 39.5894 211.02 39.7794C210.5 39.8694 210.15 40.3594 210.22 40.8894L210.6 43.7594C210.67 44.2794 211.14 44.6594 211.66 44.6094C213.55 44.4594 215.42 44.3294 217.28 44.2294C219.49 44.1194 221.31 44.0594 222.76 44.0594C224.7 44.0594 226.01 44.3994 226.7 45.0894C227.38 45.7394 227.73 46.7994 227.73 48.2794V49.1094C227.73 49.6594 227.29 50.0994 226.74 50.0994H216.95C214.4 50.0994 212.39 50.7294 210.9 51.9794C209.45 53.1994 208.73 54.9094 208.73 57.1094V60.0794C208.73 61.7894 209.11 63.2394 209.87 64.4194C210.63 65.5594 211.68 66.4394 213.01 67.0394C214.34 67.6094 215.84 67.8994 217.52 67.8994C219.2 67.8994 220.64 67.6494 221.97 67.1594C223.34 66.6694 224.54 66.0394 225.56 65.2794C226.62 64.5194 227.52 63.7594 228.24 62.9994C228.32 62.9094 228.39 62.8194 228.47 62.7394L229.07 66.4994C229.15 66.9794 229.56 67.3394 230.05 67.3394H233.69C234.24 67.3394 234.68 66.8994 234.68 66.3494V48.3494C234.68 45.8794 234.28 43.9394 233.48 42.5294L233.49 42.5194ZM222.82 62.0294C221.56 62.4494 220.42 62.6594 219.4 62.6594C218.11 62.6594 217.16 62.3694 216.55 61.7994C215.94 61.1894 215.64 60.3194 215.64 59.1794V57.6394C215.64 56.6494 215.89 55.8694 216.38 55.2994C216.87 54.7294 217.69 54.4294 218.83 54.3894H226.74C227.29 54.3894 227.73 54.8294 227.73 55.3794V58.8594C227.73 59.1694 227.58 59.4694 227.33 59.6594C227.08 59.8494 226.8 60.0394 226.53 60.2094C225.31 61.0094 224.08 61.6194 222.82 62.0394V62.0294Z" fill="#333336"/>
<path d="M266.95 28.5994C264.71 27.7994 261.61 27.3994 257.65 27.3994C255.18 27.3994 253.07 27.4194 251.32 27.4594C249.57 27.4594 247.95 27.4994 246.47 27.5694C245.26 27.6294 243.98 27.7294 242.63 27.8694C242.12 27.9194 241.73 28.3494 241.73 28.8594V66.3494C241.73 66.8994 242.17 67.3394 242.72 67.3394H251.46C252.01 67.3394 252.45 66.8994 252.45 66.3494V53.2794C252.85 53.3294 253.24 53.3794 253.65 53.4194C255.48 53.5694 257.3 53.6494 259.13 53.6494C262.59 53.6494 265.35 53.2694 267.4 52.5094C269.45 51.7494 270.92 50.4394 271.79 48.5694C272.7 46.6694 273.16 44.0094 273.16 40.5794C273.16 37.1494 272.68 34.4894 271.73 32.5894C270.78 30.6894 269.18 29.3594 266.94 28.5994H266.95ZM261.99 43.8894C261.72 44.6494 261.23 45.1794 260.51 45.4894C259.79 45.7594 258.76 45.9094 257.43 45.9494H253.46C252.91 45.9494 252.47 45.5094 252.47 44.9594V36.1694C252.47 35.6194 252.91 35.1794 253.46 35.1794C254.71 35.1794 256.03 35.1794 257.44 35.1794C258.77 35.1794 259.8 35.3294 260.52 35.6394C261.24 35.9094 261.74 36.4394 262 37.2394C262.3 38.0394 262.46 39.1594 262.46 40.6094C262.46 42.0594 262.31 43.1194 262 43.9194L261.99 43.8894Z" fill="url(#paint0_linear_605_3796)"/>
<path d="M299.241 39.2195C297.491 38.5395 295.341 38.1895 292.791 38.1895C291.381 38.1895 289.731 38.2695 287.831 38.4195C285.931 38.5295 284.031 38.7095 282.121 38.9295C280.661 39.0795 279.351 39.2495 278.171 39.4495C277.641 39.5395 277.271 40.0295 277.341 40.5695L278.001 45.3895C278.071 45.8995 278.531 46.2695 279.051 46.2395C281.081 46.1195 283.031 46.0395 284.911 46.0095C287.081 45.9295 288.901 45.8995 290.391 45.8995C291.881 45.8995 292.821 46.1695 293.361 46.6995C293.931 47.1895 294.231 48.0295 294.271 49.2095V49.9495H284.741C281.961 49.9495 279.761 50.5995 278.121 51.8895C276.521 53.1495 275.721 54.9095 275.721 57.1995V60.0495C275.721 61.8395 276.141 63.3195 276.981 64.4995C277.851 65.6795 279.011 66.5695 280.461 67.1795C281.911 67.7895 283.481 68.0895 285.191 68.0895C287.051 68.0895 288.691 67.7895 290.101 67.1795C291.511 66.5695 292.701 65.8095 293.691 64.8995C293.851 64.7495 294.001 64.5995 294.141 64.4495C294.691 63.8895 295.631 64.1695 295.801 64.9295L296.191 66.5895C296.301 67.0395 296.701 67.3595 297.161 67.3595H303.651C304.201 67.3595 304.641 66.9195 304.641 66.3695V49.2795C304.641 46.4695 304.181 44.2595 303.271 42.6595C302.361 41.0595 301.011 39.9195 299.221 39.2395L299.241 39.2195ZM291.711 60.2095C290.641 60.6295 289.641 60.8395 288.691 60.8395C287.741 60.8395 287.021 60.6495 286.521 60.2695C286.061 59.8495 285.841 59.2795 285.841 58.5595V57.4795C285.841 56.7995 286.031 56.2595 286.411 55.8795C286.831 55.4595 287.481 55.2295 288.351 55.1995H293.291C293.841 55.1995 294.281 55.6395 294.281 56.1895V58.3195C294.281 58.6695 294.101 58.9995 293.801 59.1795C293.111 59.5895 292.421 59.9395 291.711 60.2195V60.2095Z" fill="url(#paint1_linear_605_3796)"/>
<path d="M329.92 38.9895C329.46 38.9895 329.07 39.2995 328.96 39.7395L324.93 55.8695C324.74 56.8195 324.47 57.9795 324.13 59.3495C324.01 59.8595 323.89 60.3295 323.75 60.7795H323.16C323.05 59.9795 322.91 59.1595 322.76 58.3295C322.65 57.5095 322.52 56.6995 322.37 55.9095C322.37 55.8895 322.37 55.8595 322.35 55.8395L318.27 39.7395C318.16 39.2995 317.76 38.9895 317.31 38.9895H308.46C307.78 38.9895 307.3 39.6595 307.52 40.2995L315.86 64.8895C316.09 65.6095 316.49 66.1995 317.06 66.6595C317.67 67.1195 318.37 67.3395 319.17 67.3395H320.93C320.22 68.8095 319.24 69.9695 317.97 70.8195C316.81 71.6195 315.27 72.2695 313.36 72.7795C312.87 72.9095 312.55 73.3695 312.61 73.8695L313.14 77.9495C313.2 78.3895 313.55 78.7495 313.99 78.8095C316.34 79.1295 318.41 79.0395 320.2 78.5195C322.18 77.9495 323.85 77.0395 325.22 75.7795C326.63 74.5595 327.77 73.1695 328.64 71.6195C329.52 70.0595 330.2 68.5395 330.69 67.0595L339.77 40.2995C339.99 39.6595 339.51 38.9895 338.83 38.9895H329.93H329.92Z" fill="url(#paint2_linear_605_3796)"/>
<path fill-rule="evenodd" clip-rule="evenodd" d="M4.73047 78.6793C4.73047 81.0693 6.68047 83.0193 9.07047 83.0193C19.0305 83.0093 27.3705 75.9593 29.3705 66.5793H41.5205C52.7705 66.5793 62.2305 57.6294 62.6405 46.6194C62.8505 40.9394 60.7905 35.5493 56.8505 31.4693C52.9105 27.3893 47.6105 25.1293 41.9305 25.1293L23.6805 25.1093V9.13935C23.6805 7.20935 22.4205 5.50935 20.5605 4.96935C18.7105 4.43935 16.7205 5.18935 15.6905 6.81935L7.14047 20.3093C5.13047 22.5793 4.56047 25.7693 5.70047 28.6293C6.92047 31.6593 9.80047 33.6493 13.0605 33.6893L19.3505 33.7893L41.9405 33.8093C45.2405 33.8093 48.3105 35.1093 50.6105 37.4893C52.8905 39.8693 54.0905 42.9993 53.9705 46.3093C53.7305 52.6993 48.1505 57.8993 41.5205 57.8993L25.4905 57.9193C23.0805 57.9193 21.1505 59.8693 21.1505 62.2593C21.1505 67.3893 17.9305 71.7794 13.4105 73.5294V54.0793C13.4105 51.9493 15.1505 50.2094 17.2805 50.2094H27.9305C29.2805 52.1194 31.5005 53.3694 34.0105 53.3694C38.1105 53.3694 41.4505 50.0294 41.4505 45.9294C41.4505 41.8294 38.1105 38.4893 34.0105 38.4893C31.5505 38.4893 29.3705 39.6894 28.0105 41.5294H17.2805C10.3605 41.5294 4.73047 47.1593 4.73047 54.0793V78.6793Z" fill="url(#paint3_linear_605_3796)"/>
<defs>
<linearGradient id="paint0_linear_605_3796" x1="273.17" y1="47.3694" x2="179.78" y2="47.3694" gradientUnits="userSpaceOnUse">
<stop stop-color="#23BD8F"/>
<stop offset="1" stop-color="#1BDBAD"/>
</linearGradient>
<linearGradient id="paint1_linear_605_3796" x1="304.661" y1="53.1395" x2="218.721" y2="53.1395" gradientUnits="userSpaceOnUse">
<stop stop-color="#23BD8F"/>
<stop offset="1" stop-color="#1BDBAD"/>
</linearGradient>
<linearGradient id="paint2_linear_605_3796" x1="339.82" y1="58.9895" x2="243.67" y2="58.9895" gradientUnits="userSpaceOnUse">
<stop stop-color="#23BD8F"/>
<stop offset="1" stop-color="#1BDBAD"/>
</linearGradient>
<linearGradient id="paint3_linear_605_3796" x1="17.7205" y1="85.5093" x2="36.1505" y2="29.8693" gradientUnits="userSpaceOnUse">
<stop stop-color="#23BD8F"/>
<stop offset="1" stop-color="#1BDBAD"/>
</linearGradient>
</defs>
</svg>
