<svg width="84" height="87" viewBox="0 0 84 87" fill="none" xmlns="http://www.w3.org/2000/svg">
<g clip-path="url(#clip0_910_55654)">
<path d="M0.591302 65.3532L42.2143 41.0215L83.0075 65.2138C84.3364 66.0019 84.3255 67.9102 82.9858 68.6875L52.9482 86.013C51.7604 86.6991 50.296 86.6884 49.1135 85.9915L39.6651 80.3897C39.0197 80.0091 38.2115 80.0091 37.5661 80.3897L31.8493 83.7776C30.6614 84.4798 29.1807 84.4798 27.9983 83.7722L0.580454 67.3956C-0.200588 66.9292 -0.195164 65.8089 0.591302 65.3532Z" fill="#34A188"/>
<path d="M0.591302 63.8093L42.2143 39.4775L83.0075 63.6699C84.3364 64.4579 84.3255 66.3663 82.9858 67.1436L52.9482 84.469C51.7604 85.1552 50.296 85.1444 49.1135 84.4476L39.6651 78.8457C39.0197 78.4651 38.2115 78.4651 37.5661 78.8457L31.8493 82.2336C30.6614 82.9359 29.1807 82.9359 27.9983 82.2283L0.580454 65.857C-0.200588 65.3906 -0.195164 64.2703 0.591302 63.8146V63.8093Z" fill="url(#paint0_linear_910_55654)"/>
<path d="M21.4194 64.5326L38.982 74.5462C39.9854 75.1198 41.2221 75.1198 42.2309 74.5462L61.3068 63.6856C61.7028 63.4605 61.9034 63.0638 61.9089 62.6725C61.9089 62.2758 61.9089 50.2788 61.9089 50.2788H42.155L20.7686 51.0883C20.7686 51.0883 20.7686 62.9781 20.7686 63.4069C20.7686 63.8465 20.9801 64.286 21.4194 64.538V64.5326Z" fill="url(#paint1_linear_910_55654)"/>
<path d="M21.4188 53.7367L38.9814 63.7503C39.9848 64.3239 41.2214 64.3239 42.2303 63.7503L61.3061 52.8898C61.7021 52.6646 61.9028 52.2679 61.9082 51.8766C61.9082 51.4799 61.9082 45.7173 61.9082 45.7173L42.1543 39.4829L20.7733 46.5428C20.7733 46.5428 20.7896 52.1554 20.7733 52.5681C20.757 53.0184 20.974 53.4741 21.4242 53.7314L21.4188 53.7367Z" fill="url(#paint2_linear_910_55654)"/>
<path d="M21.4189 47.62L38.9815 57.6336C39.9849 58.2072 41.2216 58.2072 42.2304 57.6336L61.3063 46.773C62.0982 46.3228 62.1091 45.197 61.3226 44.7307L42.1491 33.3608L21.4081 45.39C20.5457 45.8885 20.5511 47.1268 21.4189 47.62Z" fill="url(#paint3_linear_910_55654)"/>
<path d="M30.2764 19.1659V52.6428L31.3937 53.3075L52.2378 39.2253L53.0296 7.02418C52.5198 6.30586 51.5055 6.41843 51.1096 6.64357L30.7591 18.3404C30.4608 18.5119 30.2818 18.8228 30.2818 19.1659H30.2764Z" fill="#757B7B"/>
<path d="M31.3936 19.5308V53.3079L53.2193 39.8099V7.4641C53.2193 7.00845 52.7203 6.72434 52.319 6.95485L31.8709 18.7106C31.5725 18.8822 31.3936 19.1931 31.3936 19.5362V19.5308Z" fill="url(#paint4_linear_910_55654)"/>
<path d="M32.4246 78.3845L19.4831 71.3782L22.4175 69.7272L9.11261 61.9597L15.3718 58.3788L14.8674 58.0625L7.82715 62.1312L20.9964 69.8022L18.1054 71.4104L31.4971 78.9099L32.4246 78.3845Z" fill="url(#paint5_linear_910_55654)"/>
<path d="M74.0955 63.0801L47.1604 78.4382L44.0742 76.6156L43.2715 77.0873L47.2092 79.4513L74.7844 63.4714L74.0955 63.0801Z" fill="url(#paint6_linear_910_55654)"/>
<path d="M15.8811 70.2312L16.5103 69.8399L5.62448 63.375L4.87598 63.8146L15.8811 70.2312Z" fill="url(#paint7_linear_910_55654)"/>
<path d="M53.2197 78.0792L54.1038 78.5777L77.5025 65.4336L76.6239 64.9243L53.2197 78.0792Z" fill="url(#paint8_linear_910_55654)"/>
<path d="M63.3184 61.2201L64.2296 61.7026L70.3694 58.4326L69.4908 57.9287L63.3184 61.2201Z" fill="url(#paint9_linear_910_55654)"/>
<path d="M21.4188 37.8158L38.9814 47.8294C39.9848 48.403 41.2214 48.403 42.2303 47.8294L61.3061 36.9689C61.7021 36.7437 61.9028 36.347 61.9082 35.9557C61.9082 35.559 61.9082 29.7964 61.9082 29.7964L42.1543 23.562L20.7733 30.6219C20.7733 30.6219 20.7896 36.2345 20.7733 36.6472C20.757 37.0975 20.974 37.5532 21.4242 37.8105L21.4188 37.8158Z" fill="url(#paint10_linear_910_55654)"/>
<path d="M21.4189 31.6991L38.9815 41.7127C39.9849 42.2863 41.2216 42.2863 42.2304 41.7127L61.3063 30.8521C62.0982 30.4019 62.1091 29.2761 61.3226 28.8098L45.3872 19.359C43.3912 18.1743 40.9016 18.1636 38.8947 19.3269L21.4081 29.4638C20.5457 29.9623 20.5511 31.2006 21.4189 31.6938V31.6991Z" fill="url(#paint11_linear_910_55654)"/>
<path d="M21.4188 19.8632L38.9814 29.8768C39.9848 30.4504 41.2214 30.4504 42.2303 29.8768L61.3061 19.0162C61.7021 18.7911 61.9028 18.3944 61.9082 18.0031C61.9082 17.6064 61.9082 11.8437 61.9082 11.8437L42.1543 5.60938L20.7733 12.6693C20.7733 12.6693 20.7896 18.2818 20.7733 18.6946C20.757 19.1449 20.974 19.6005 21.4242 19.8578L21.4188 19.8632Z" fill="url(#paint12_linear_910_55654)"/>
<path d="M21.4189 13.7465L38.9815 23.7601C39.9849 24.3337 41.2216 24.3337 42.2304 23.7601L61.3063 12.8995C62.0982 12.4492 62.1091 11.3235 61.3226 10.8571L45.3872 1.41177C43.3912 0.227078 40.9016 0.216357 38.8947 1.37961L21.4081 11.5219C20.5457 12.0204 20.5511 13.2587 21.4189 13.7519V13.7465Z" fill="url(#paint13_linear_910_55654)"/>
<path d="M27.0215 8.26245L31.1437 10.2995L28.2581 11.9077L32.3261 14.1859L33.1017 13.7571L29.6358 11.8808L32.5701 10.2298L27.6724 7.88721L27.0215 8.26245Z" fill="url(#paint14_linear_910_55654)"/>
<path d="M54.1303 6.5957L37.3704 16.1536L34.1649 14.4007L33.4814 14.8081L37.4192 17.1722L55.2042 7.23361L54.1303 6.5957Z" fill="url(#paint15_linear_910_55654)"/>
<path d="M56.9345 44.6021L40.1746 54.16L36.9691 52.4017L36.2803 52.8091L40.2994 55.1303L58.003 45.2346L56.9345 44.6021Z" fill="url(#paint16_linear_910_55654)"/>
<path d="M35.6025 8.53063L36.2805 8.15539L31.3935 5.72168L30.8457 6.04868L35.6025 8.53063Z" fill="url(#paint17_linear_910_55654)"/>
<path d="M35.6025 36.4969L36.2805 36.1163L31.3935 33.688L30.8457 34.0096L35.6025 36.4969Z" fill="url(#paint18_linear_910_55654)"/>
<path d="M57.3792 33.0927L58.0898 32.6907L53.2191 29.8389L52.4814 30.2141L57.3792 33.0927Z" fill="url(#paint19_linear_910_55654)"/>
<path d="M43.4238 15.7996L44.3079 16.2928L57.9328 8.8523L56.886 8.23047L43.4238 15.7996Z" fill="url(#paint20_linear_910_55654)"/>
<path d="M35.5967 13.6659L36.5079 14.1484L42.6478 10.8784L41.7691 10.3745L35.5967 13.6659Z" fill="url(#paint21_linear_910_55654)"/>
</g>
<defs>
<linearGradient id="paint0_linear_910_55654" x1="65.2768" y1="86.4631" x2="22.7263" y2="46.1783" gradientUnits="userSpaceOnUse">
<stop stop-color="#1BDBAD"/>
<stop offset="1" stop-color="#5A6262"/>
</linearGradient>
<linearGradient id="paint1_linear_910_55654" x1="54.1527" y1="62.6296" x2="-3.17798" y2="62.6296" gradientUnits="userSpaceOnUse">
<stop stop-color="#525A5A"/>
<stop offset="1" stop-color="#333336"/>
</linearGradient>
<linearGradient id="paint2_linear_910_55654" x1="13.6246" y1="51.2065" x2="94.6784" y2="53.0724" gradientUnits="userSpaceOnUse">
<stop stop-color="#727E7D"/>
<stop offset="0.33" stop-color="#A6AAAA"/>
<stop offset="1" stop-color="#757B7B"/>
</linearGradient>
<linearGradient id="paint3_linear_910_55654" x1="17.8717" y1="45.0469" x2="75.6134" y2="46.7262" gradientUnits="userSpaceOnUse">
<stop stop-color="#1BDBAD"/>
<stop offset="1" stop-color="#757B7B"/>
</linearGradient>
<linearGradient id="paint4_linear_910_55654" x1="29.1318" y1="127.895" x2="44.11" y2="13.5508" gradientUnits="userSpaceOnUse">
<stop stop-color="#1BDBAD"/>
<stop offset="1" stop-color="#5A6262"/>
</linearGradient>
<linearGradient id="paint5_linear_910_55654" x1="17.7312" y1="65.5298" x2="64.8553" y2="96.3269" gradientUnits="userSpaceOnUse">
<stop stop-color="#D5D7D7"/>
<stop offset="1" stop-color="white"/>
</linearGradient>
<linearGradient id="paint6_linear_910_55654" x1="27.6995" y1="50.279" x2="74.8236" y2="81.076" gradientUnits="userSpaceOnUse">
<stop stop-color="#D5D7D7"/>
<stop offset="1" stop-color="white"/>
</linearGradient>
<linearGradient id="paint7_linear_910_55654" x1="15.0621" y1="69.6147" x2="62.1862" y2="100.412" gradientUnits="userSpaceOnUse">
<stop stop-color="#D5D7D7"/>
<stop offset="1" stop-color="white"/>
</linearGradient>
<linearGradient id="paint8_linear_910_55654" x1="28.8827" y1="48.4673" x2="76.0068" y2="79.2644" gradientUnits="userSpaceOnUse">
<stop stop-color="#D5D7D7"/>
<stop offset="1" stop-color="white"/>
</linearGradient>
<linearGradient id="paint9_linear_910_55654" x1="34.8157" y1="39.3811" x2="81.9399" y2="70.1781" gradientUnits="userSpaceOnUse">
<stop stop-color="#D5D7D7"/>
<stop offset="1" stop-color="white"/>
</linearGradient>
<linearGradient id="paint10_linear_910_55654" x1="88.4528" y1="33.8168" x2="23.9223" y2="36.7582" gradientUnits="userSpaceOnUse">
<stop stop-color="#1BDBAD"/>
<stop offset="1" stop-color="#525A5A"/>
</linearGradient>
<linearGradient id="paint11_linear_910_55654" x1="20.7626" y1="30.3054" x2="61.9029" y2="30.3054" gradientUnits="userSpaceOnUse">
<stop stop-color="#1BDBAD"/>
<stop offset="1" stop-color="#525A5A"/>
</linearGradient>
<linearGradient id="paint12_linear_910_55654" x1="102.907" y1="14.4812" x2="25.4981" y2="18.9645" gradientUnits="userSpaceOnUse">
<stop stop-color="#1BDBAD"/>
<stop offset="1" stop-color="#525A5A"/>
</linearGradient>
<linearGradient id="paint13_linear_910_55654" x1="64.8264" y1="13.1515" x2="-3.85997" y2="10.7643" gradientUnits="userSpaceOnUse">
<stop stop-color="#1BDBAD"/>
<stop offset="1" stop-color="#525A5A"/>
</linearGradient>
<linearGradient id="paint14_linear_910_55654" x1="29.0771" y1="10.2137" x2="42.0095" y2="18.6664" gradientUnits="userSpaceOnUse">
<stop stop-color="#D5D7D7"/>
<stop offset="1" stop-color="white"/>
</linearGradient>
<linearGradient id="paint15_linear_910_55654" x1="21.0987" y1="-3.81457" x2="56.0554" y2="19.0258" gradientUnits="userSpaceOnUse">
<stop stop-color="#D5D7D7"/>
<stop offset="1" stop-color="white"/>
</linearGradient>
<linearGradient id="paint16_linear_910_55654" x1="23.9029" y1="34.1864" x2="58.8541" y2="57.0321" gradientUnits="userSpaceOnUse">
<stop stop-color="#D5D7D7"/>
<stop offset="1" stop-color="white"/>
</linearGradient>
<linearGradient id="paint17_linear_910_55654" x1="35.4723" y1="8.32157" x2="56.0962" y2="21.799" gradientUnits="userSpaceOnUse">
<stop stop-color="#D5D7D7"/>
<stop offset="1" stop-color="white"/>
</linearGradient>
<linearGradient id="paint18_linear_910_55654" x1="35.4723" y1="36.2825" x2="56.0962" y2="49.76" gradientUnits="userSpaceOnUse">
<stop stop-color="#D5D7D7"/>
<stop offset="1" stop-color="white"/>
</linearGradient>
<linearGradient id="paint19_linear_910_55654" x1="57.3087" y1="32.7443" x2="79.1552" y2="47.0229" gradientUnits="userSpaceOnUse">
<stop stop-color="#D5D7D7"/>
<stop offset="1" stop-color="white"/>
</linearGradient>
<linearGradient id="paint20_linear_910_55654" x1="27.9765" y1="-2.16908" x2="57.3046" y2="16.998" gradientUnits="userSpaceOnUse">
<stop stop-color="#D5D7D7"/>
<stop offset="1" stop-color="white"/>
</linearGradient>
<linearGradient id="paint21_linear_910_55654" x1="7.09407" y1="-8.17314" x2="54.2182" y2="22.6239" gradientUnits="userSpaceOnUse">
<stop stop-color="#D5D7D7"/>
<stop offset="1" stop-color="white"/>
</linearGradient>
<clipPath id="clip0_910_55654">
<rect width="84" height="86" fill="white" transform="translate(0 0.516602)"/>
</clipPath>
</defs>
</svg>
